<svg width="24" height="24" viewBox="0 0 24 24" fill="none" xmlns="http://www.w3.org/2000/svg">
<g id="15-seconds-back">
<path id="Vector" d="M8.48535 0.788885C8.29057 0.794562 8.10565 0.875817 7.96973 1.01545L6.21973 2.76545C6.07913 2.90611 6.00014 3.09684 6.00014 3.29572C6.00014 3.4946 6.07913 3.68534 6.21973 3.82599L7.96973 5.57599C8.03884 5.64797 8.12161 5.70544 8.21321 5.74503C8.3048 5.78461 8.40338 5.80553 8.50316 5.80654C8.60294 5.80755 8.70192 5.78865 8.7943 5.75093C8.88668 5.71322 8.97061 5.65745 9.04117 5.58689C9.11172 5.51633 9.1675 5.4324 9.20521 5.34002C9.24293 5.24764 9.26183 5.14866 9.26082 5.04888C9.25981 4.9491 9.23889 4.85053 9.1993 4.75893C9.15972 4.66733 9.10225 4.58456 9.03027 4.51545L7.81055 3.29572L9.03027 2.07599C9.13847 1.97062 9.21234 1.83503 9.24221 1.68698C9.27208 1.53892 9.25655 1.3853 9.19767 1.24622C9.13878 1.10714 9.03928 0.989067 8.91219 0.907467C8.78509 0.825868 8.63632 0.784537 8.48535 0.788885ZM11.9854 0.788885C11.7906 0.794562 11.6056 0.875817 11.4697 1.01545L9.71973 2.76545C9.57913 2.90611 9.50014 3.09684 9.50014 3.29572C9.50014 3.4946 9.57913 3.68534 9.71973 3.82599L11.4697 5.57599C11.5388 5.64797 11.6216 5.70544 11.7132 5.74503C11.8048 5.78461 11.9034 5.80553 12.0032 5.80654C12.1029 5.80755 12.2019 5.78865 12.2943 5.75093C12.3867 5.71322 12.4706 5.65745 12.5412 5.58689C12.6117 5.51633 12.6675 5.4324 12.7052 5.34002C12.7429 5.24764 12.7618 5.14866 12.7608 5.04888C12.7598 4.9491 12.7389 4.85053 12.6993 4.75893C12.6597 4.66733 12.6023 4.58456 12.5303 4.51545L12.0635 4.04865C16.7369 4.08305 20.5 7.86401 20.5 12.5457C20.5 17.2489 16.7031 21.0457 12 21.0457C7.29685 21.0457 3.5 17.2489 3.5 12.5457C3.5 12.4731 3.50109 12.3999 3.50293 12.3279C3.50798 12.129 3.43381 11.9363 3.29673 11.792C3.15964 11.6478 2.97089 11.564 2.77197 11.5589C2.57306 11.5539 2.38029 11.628 2.23607 11.7651C2.09184 11.9022 2.00798 12.0909 2.00293 12.2899C2.00076 12.3749 2 12.4604 2 12.5457C2 18.0596 6.48615 22.5457 12 22.5457C17.5139 22.5457 22 18.0596 22 12.5457C22 7.05185 17.546 2.57904 12.0596 2.5467L12.5303 2.07599C12.6385 1.97062 12.7123 1.83503 12.7422 1.68698C12.7721 1.53892 12.7566 1.3853 12.6977 1.24622C12.6388 1.10714 12.5393 0.989067 12.4122 0.907467C12.2851 0.825868 12.1363 0.784537 11.9854 0.788885ZM9.30957 9.0467C9.26059 9.05082 9.21169 9.06097 9.16406 9.07697L7.66406 9.57697C7.33656 9.68647 7.15955 10.0405 7.26855 10.368C7.37805 10.695 7.73157 10.8715 8.05957 10.7635L8.73633 10.5379V15.4207C8.73633 15.7657 9.01633 16.0457 9.36133 16.0457C9.70633 16.0457 9.98633 15.7657 9.98633 15.4197V9.66974C9.98633 9.46874 9.88956 9.28041 9.72656 9.16291C9.60431 9.07478 9.4565 9.03435 9.30957 9.0467ZM12.3613 9.0467C12.2144 9.04678 12.0722 9.0986 11.9597 9.19307C11.8472 9.28754 11.7716 9.41862 11.7461 9.5633L11.3301 11.9432C11.3143 12.033 11.3183 12.1252 11.3419 12.2134C11.3656 12.3015 11.4082 12.3833 11.4668 12.4532C11.5254 12.5231 11.5986 12.5793 11.6813 12.6179C11.764 12.6565 11.8541 12.6765 11.9453 12.6766H13.6924C14.275 12.6766 14.7383 13.1399 14.7383 13.7225C14.7383 14.0849 14.6289 14.3127 14.4482 14.4803C14.2676 14.6479 13.9839 14.7684 13.5615 14.7684C12.6859 14.7684 12.0835 14.3571 12.0664 14.3445C12.0004 14.2947 11.9252 14.2584 11.8451 14.2378C11.765 14.2171 11.6816 14.2126 11.5998 14.2245C11.5179 14.2363 11.4393 14.2643 11.3683 14.3068C11.2973 14.3493 11.2355 14.4054 11.1864 14.472C11.1373 14.5385 11.1019 14.6142 11.0822 14.6945C11.0626 14.7748 11.059 14.8583 11.0719 14.94C11.0847 15.0217 11.1136 15.1 11.1569 15.1705C11.2002 15.2409 11.2571 15.3021 11.3242 15.3504C11.5362 15.5068 12.3222 16.0184 13.5615 16.0184C14.2336 16.0184 14.8514 15.8105 15.2979 15.3963C15.7443 14.9822 15.9883 14.3751 15.9883 13.7225C15.9883 12.4621 14.9528 11.4266 13.6924 11.4266H12.6895L12.8867 10.2967H15.1611C15.244 10.2979 15.3262 10.2826 15.403 10.2517C15.4799 10.2208 15.5498 10.175 15.6088 10.1168C15.6678 10.0586 15.7146 9.98935 15.7466 9.91294C15.7786 9.83653 15.795 9.75453 15.795 9.6717C15.795 9.58887 15.7786 9.50687 15.7466 9.43046C15.7146 9.35405 15.6678 9.28475 15.6088 9.2266C15.5498 9.16844 15.4799 9.12259 15.403 9.09171C15.3262 9.06083 15.244 9.04553 15.1611 9.0467H12.3613Z" fill="#F8F7F8"/>
</g>
</svg>
