<svg width="138" height="53" viewBox="0 0 138 53" fill="none" xmlns="http://www.w3.org/2000/svg">
<g id="Logo">
<path id="Vector" d="M59.2529 22.6451H67.319V39.5514C67.319 41.8744 67.9428 43.5306 69.1903 44.52C70.4379 45.5095 71.8145 46.0042 73.3201 46.0042C74.8258 46.0042 76.1594 45.5095 77.3209 44.52C78.5255 43.5306 79.1277 41.8744 79.1277 39.5514V22.6451H87.1938V52.3279H79.1277V49.6177C77.1058 51.7687 74.3526 52.8441 70.8681 52.8441C67.7277 52.8441 64.996 51.8977 62.6729 50.0049C60.3929 48.0691 59.2529 45.0147 59.2529 40.8419V22.6451ZM101.517 22.6451L101.453 52.3279H93.3865V22.6451H101.517ZM94.3544 10.5783C95.2148 9.84701 96.2473 9.48135 97.4518 9.48135C98.6133 9.48135 99.6458 9.86852 100.549 10.6429C101.453 11.4172 101.904 12.4496 101.904 13.7402C101.904 15.0738 101.453 16.1492 100.549 16.9666C99.6458 17.827 98.6133 18.2572 97.4518 18.2572C96.2903 18.2572 95.2578 17.8485 94.3544 17.0311C93.451 16.1708 92.9993 15.0738 92.9993 13.7402C92.9993 12.4066 93.451 11.3527 94.3544 10.5783ZM107.715 52.3279V10.3847H115.845L115.781 52.3279H107.715ZM119.738 28.7752V22.6451H123.61V13.5466H131.676V22.6451H138V28.7752H131.676V42.4551C131.676 43.2725 131.784 43.9393 131.999 44.4555C132.214 44.9717 132.537 45.3374 132.967 45.5525C133.44 45.7676 133.849 45.9181 134.193 46.0042C134.58 46.0472 135.075 46.0687 135.677 46.0687H137.677V52.3279H132.321C126.514 52.3279 123.61 49.4672 123.61 43.7457V28.7752H119.738Z" fill="white"/>
<path id="Vector_2" fill-rule="evenodd" clip-rule="evenodd" d="M37.8625 11.1082C42.7322 14.7306 45.5974 20.4123 45.5974 26.4998C45.5974 32.5874 42.7159 38.2815 37.8625 41.8912C32.9952 38.2707 30.1273 32.5923 30.1273 26.4998C30.1273 20.4074 32.9955 14.7284 37.8625 11.1082ZM7.32841 26.4998C7.32841 15.917 15.8945 7.33864 26.4632 7.33864C27.0948 7.33864 27.719 7.36943 28.3349 7.42917C30.4418 5.113 32.9199 3.15279 35.6636 1.64552C32.7978 0.581352 29.6983 0 26.4632 0C11.8485 0 0 11.8651 0 26.4998C0 41.1346 11.8485 53 26.4632 53C30.4142 53 34.3002 52.1267 37.8625 50.4218C41.3147 52.0741 45.1805 53 49.2618 53V45.6607C47.8636 45.6607 46.5002 45.5108 45.1872 45.2257C50.1547 40.2444 52.9261 33.5509 52.9261 26.4995C52.9261 16.2344 47.0211 6.96236 37.8625 2.57759C28.6778 6.97468 22.7989 16.2544 22.7989 26.4995C22.7989 33.8108 25.756 40.4307 30.5378 45.2257C29.1996 45.5163 27.8328 45.6607 26.4635 45.6607C15.8951 45.6607 7.32872 37.0827 7.32872 26.4998H7.32841Z" fill="white"/>
</g>
</svg>
