<svg width="19" height="18" viewBox="0 0 19 18" fill="none" xmlns="http://www.w3.org/2000/svg">
<g id="Apple">
<path id="Vector" d="M15.1557 15.4794L15.1557 15.4794C15.5098 14.9769 15.8167 14.4287 16.077 13.8304C16.1298 13.7055 16.1811 13.5778 16.2312 13.4472C15.8815 13.2563 15.5588 13.0206 15.2623 12.7408C14.337 11.8862 13.8638 10.7987 13.8501 9.5175L13.8501 9.5167C13.8366 8.03593 14.4498 6.83947 15.637 5.9573C14.9895 5.26819 14.0932 4.86666 12.9059 4.77127L12.9038 4.7711C12.4415 4.73202 11.8329 4.82924 11.0574 5.10692C11.0569 5.1071 11.0564 5.10728 11.0559 5.10746L10.8872 4.63675C10.0286 4.95041 9.5221 5.10774 9.37265 5.10774C9.17275 5.10774 8.71681 4.97319 8.00672 4.70786L15.1557 15.4794ZM15.1557 15.4794C14.6489 16.1987 14.2591 16.6589 13.9851 16.8958L13.9797 16.9004L13.9745 16.9052C13.5488 17.2949 13.1266 17.4681 12.6968 17.4796C12.3742 17.4785 11.9467 17.3851 11.4054 17.1635L11.4041 17.163C10.7799 16.9095 10.1823 16.774 9.61541 16.774C9.02776 16.774 8.41591 16.9081 7.78319 17.1623L7.78268 17.1625C7.21582 17.3909 6.80619 17.4894 6.53049 17.4987L6.52619 17.4989C6.15077 17.5148 5.72621 17.3561 5.24117 16.9071L5.23534 16.9017L5.22933 16.8965C4.92626 16.6333 4.51703 16.153 3.99932 15.4245L3.99867 15.4235C3.46826 14.6806 3.02722 13.8123 2.67909 12.8117C2.30755 11.7342 2.125 10.7018 2.125 9.71115C2.125 8.57843 2.37027 7.6308 2.83977 6.85032L2.83979 6.85033L2.84222 6.8462C3.21241 6.21724 3.70066 5.72632 4.31254 5.36476C4.92193 5.00467 5.5771 4.82135 6.28861 4.80888C6.6365 4.80971 7.14199 4.92014 7.83216 5.1764L15.1557 15.4794ZM10.6624 1.6993L10.6647 1.69668C10.9506 1.37 11.321 1.0901 11.7858 0.861502C12.0526 0.732178 12.3037 0.639298 12.5398 0.579576C12.4914 1.2653 12.2135 1.92145 11.6782 2.55436C11.0775 3.25294 10.4192 3.65879 9.745 3.74499C9.79005 3.06606 10.1053 2.32695 10.6624 1.6993Z" fill="#131314" stroke="#131314"/>
</g>
</svg>
