<svg width="20" height="20" viewBox="0 0 20 20" fill="none" xmlns="http://www.w3.org/2000/svg">
<path d="M19.8281 10.1716C19.9229 4.74346 15.5993 0.266304 10.1712 0.171556C4.74312 0.0768083 0.265965 4.40034 0.171217 9.82844C0.0764695 15.2565 4.40001 19.7337 9.8281 19.8284C15.2562 19.9232 19.7334 15.5997 19.8281 10.1716Z" fill="white" fill-opacity="0.2"/>
<path d="M6.32744 5.91265C6.29483 5.81476 6.23225 5.72962 6.14855 5.66928C6.06486 5.60894 5.9643 5.57648 5.86113 5.57648C5.75795 5.57648 5.6574 5.60894 5.5737 5.66928C5.49001 5.72962 5.42743 5.81476 5.39482 5.91265L2.93734 13.2851C2.9127 13.359 2.90599 13.4377 2.91773 13.5147C2.92948 13.5917 2.95935 13.6648 3.00489 13.7279C3.05043 13.7911 3.11033 13.8426 3.17966 13.8781C3.24899 13.9135 3.32576 13.932 3.40364 13.932H8.31861C8.3965 13.932 8.47327 13.9135 8.54259 13.8781C8.61192 13.8426 8.67183 13.7911 8.71737 13.7279C8.76291 13.6648 8.79278 13.5917 8.80453 13.5147C8.81627 13.4377 8.80955 13.359 8.78492 13.2851L6.32744 5.91265ZM4.08559 12.949L5.86113 7.62244L7.63666 12.949H4.08559ZM14.7081 6.80533C14.7081 6.17347 14.5207 5.5558 14.1697 5.03043C13.8186 4.50506 13.3197 4.09558 12.7359 3.85378C12.1522 3.61198 11.5098 3.54871 10.8901 3.67198C10.2704 3.79525 9.70112 4.09952 9.25433 4.54631C8.80754 4.9931 8.50327 5.56235 8.38 6.18207C8.25673 6.80178 8.32 7.44414 8.5618 8.0279C8.8036 8.61166 9.21308 9.11061 9.73845 9.46165C10.2638 9.81269 10.8815 10.0001 11.5133 10.0001C12.3603 9.99908 13.1724 9.66218 13.7713 9.06327C14.3702 8.46435 14.7071 7.65232 14.7081 6.80533ZM9.30161 6.80533C9.30161 6.36789 9.43132 5.94027 9.67435 5.57655C9.91738 5.21283 10.2628 4.92935 10.6669 4.76195C11.0711 4.59455 11.5158 4.55075 11.9448 4.63609C12.3739 4.72143 12.768 4.93208 13.0773 5.24139C13.3866 5.55071 13.5972 5.9448 13.6826 6.37384C13.7679 6.80287 13.7241 7.24758 13.5567 7.65172C13.3893 8.05586 13.1058 8.40129 12.7421 8.64432C12.3784 8.88735 11.9508 9.01706 11.5133 9.01706C10.9268 9.01706 10.3642 8.78404 9.94941 8.36926C9.53463 7.95448 9.30161 7.39192 9.30161 6.80533ZM15.6911 10.9831H10.2846C10.1542 10.9831 10.0292 11.0348 9.93706 11.127C9.84489 11.2192 9.7931 11.3442 9.7931 11.4746V14.915C9.7931 15.0454 9.84489 15.1704 9.93706 15.2626C10.0292 15.3547 10.1542 15.4065 10.2846 15.4065H15.6911C15.8214 15.4065 15.9464 15.3547 16.0386 15.2626C16.1308 15.1704 16.1826 15.0454 16.1826 14.915V11.4746C16.1826 11.3442 16.1308 11.2192 16.0386 11.127C15.9464 11.0348 15.8214 10.9831 15.6911 10.9831ZM15.1996 14.4235H10.7761V11.966H15.1996V14.4235Z" fill="white"/>
</svg>
