<svg width="32" height="32" viewBox="0 0 32 32" fill="none" xmlns="http://www.w3.org/2000/svg">
<g clip-path="url(#clip0_2738_68088)">
<rect width="32" height="32" rx="16" fill="#DFDFDF"/>
<path d="M18.3537 20.6463C18.4001 20.6927 18.437 20.7479 18.4621 20.8086C18.4872 20.8693 18.5002 20.9343 18.5002 21C18.5002 21.0657 18.4872 21.1308 18.4621 21.1915C18.437 21.2522 18.4001 21.3073 18.3537 21.3538C18.3072 21.4002 18.252 21.4371 18.1914 21.4622C18.1307 21.4874 18.0656 21.5003 17.9999 21.5003C17.9342 21.5003 17.8692 21.4874 17.8085 21.4622C17.7478 21.4371 17.6926 21.4002 17.6462 21.3538L12.6462 16.3538C12.5997 16.3073 12.5628 16.2522 12.5376 16.1915C12.5125 16.1308 12.4995 16.0657 12.4995 16C12.4995 15.9343 12.5125 15.8693 12.5376 15.8086C12.5628 15.7479 12.5997 15.6927 12.6462 15.6463L17.6462 10.6463C17.74 10.5525 17.8672 10.4998 17.9999 10.4998C18.1326 10.4998 18.2598 10.5525 18.3537 10.6463C18.4475 10.7401 18.5002 10.8674 18.5002 11C18.5002 11.1327 18.4475 11.26 18.3537 11.3538L13.7068 16L18.3537 20.6463Z" fill="#131314"/>
</g>
<defs>
<clipPath id="clip0_2738_68088">
<rect width="32" height="32" rx="16" fill="white"/>
</clipPath>
</defs>
</svg>
