<svg width="32" height="32" viewBox="0 0 32 32" fill="none" xmlns="http://www.w3.org/2000/svg">
<g clip-path="url(#clip0_2738_68089)">
<rect width="32" height="32" rx="16" fill="#131314"/>
<path d="M19.3535 16.3538L14.3535 21.3538C14.3071 21.4002 14.2519 21.4371 14.1912 21.4622C14.1305 21.4874 14.0655 21.5003 13.9998 21.5003C13.9341 21.5003 13.869 21.4874 13.8083 21.4622C13.7476 21.4371 13.6925 21.4002 13.646 21.3538C13.5996 21.3073 13.5627 21.2522 13.5376 21.1915C13.5125 21.1308 13.4995 21.0657 13.4995 21C13.4995 20.9343 13.5125 20.8693 13.5376 20.8086C13.5627 20.7479 13.5996 20.6927 13.646 20.6463L18.2929 16L13.646 11.3538C13.5522 11.26 13.4995 11.1327 13.4995 11C13.4995 10.8674 13.5522 10.7401 13.646 10.6463C13.7399 10.5525 13.8671 10.4998 13.9998 10.4998C14.1325 10.4998 14.2597 10.5525 14.3535 10.6463L19.3535 15.6463C19.4 15.6927 19.4369 15.7479 19.4621 15.8086C19.4872 15.8693 19.5002 15.9343 19.5002 16C19.5002 16.0657 19.4872 16.1308 19.4621 16.1915C19.4369 16.2522 19.4 16.3073 19.3535 16.3538Z" fill="white"/>
</g>
<defs>
<clipPath id="clip0_2738_68089">
<rect width="32" height="32" rx="16" fill="white"/>
</clipPath>
</defs>
</svg>
