<svg width="32" height="32" viewBox="0 0 32 32" fill="none" xmlns="http://www.w3.org/2000/svg">
<rect width="32" height="32" rx="16" fill="#131314"/>
<path d="M14.1036 21.4163L14.1036 21.4164C14.0571 21.4629 14.002 21.4997 13.9413 21.5249C13.8806 21.5501 13.8155 21.563 13.7498 21.563C13.6841 21.563 13.6191 21.5501 13.5584 21.5249L13.5344 21.5826L13.5584 21.5249C13.4977 21.4997 13.4425 21.4629 13.3961 21.4164L13.396 21.4163L9.45855 17.4788C9.36472 17.385 9.31201 17.2578 9.31201 17.1251C9.31201 16.9924 9.36472 16.8651 9.45855 16.7713C9.55238 16.6775 9.67963 16.6248 9.81232 16.6248C9.94501 16.6248 10.0723 16.6775 10.1661 16.7713C10.1661 16.7713 10.1661 16.7713 10.1661 16.7713L13.7056 20.3115L13.7498 20.3557L13.794 20.3115L22.3961 11.7088C22.4899 11.615 22.6171 11.5623 22.7498 11.5623C22.8825 11.5623 23.0098 11.615 23.1036 11.7088C23.1974 11.8026 23.2501 11.9299 23.2501 12.0626C23.2501 12.1953 23.1974 12.3225 23.1036 12.4163L14.1036 21.4163Z" fill="white" stroke="white" stroke-width="0.125"/>
</svg>
