<svg width="36" height="36" viewBox="0 0 36 36" fill="none" xmlns="http://www.w3.org/2000/svg">
<rect x="0.5" y="0.5" width="35" height="35" rx="17.5" stroke="white" stroke-opacity="0.2"/>
<path d="M11.8809 19.3203C11.8809 20.5238 12.5024 21.1566 13.7341 21.1566H13.9149V16.2975C13.9149 14.6307 14.915 13.6363 16.5931 13.6363H21.3052V13.5628C21.3052 12.3593 20.6724 11.7322 19.452 11.7322H13.7341C12.5137 11.7322 11.8809 12.3537 11.8809 13.5628V19.3203ZM16.5931 23.8404H22.2658C23.4862 23.8404 24.119 23.2132 24.119 22.0097V16.2975C24.119 15.0883 23.4862 14.4612 22.2658 14.4612H16.5931C15.3726 14.4612 14.7398 15.0883 14.7398 16.2975V22.0097C14.7398 23.2132 15.3726 23.8404 16.5931 23.8404ZM17.1976 17.7608C16.74 17.7552 16.367 17.3936 16.367 16.9303C16.367 16.4726 16.74 16.1054 17.1976 16.1054C17.6496 16.1054 18.0225 16.4726 18.0225 16.9303C18.0225 17.3936 17.6496 17.7721 17.1976 17.7608ZM21.6499 17.7608C21.1922 17.7552 20.8193 17.3936 20.8193 16.9303C20.8193 16.4726 21.1922 16.1054 21.6499 16.1054C22.1019 16.1054 22.4748 16.4726 22.4748 16.9303C22.4748 17.3936 22.1019 17.7721 21.6499 17.7608ZM19.4238 19.9926C18.9661 19.9926 18.5988 19.6197 18.5988 19.1564C18.5988 18.7044 18.9661 18.3372 19.4238 18.3372C19.8701 18.3372 20.2487 18.7044 20.2487 19.1564C20.2487 19.6197 19.8758 19.9926 19.4238 19.9926ZM17.1976 22.2188C16.74 22.2188 16.3727 21.8459 16.3727 21.3882C16.3727 20.9306 16.74 20.569 17.1976 20.569C17.6496 20.569 18.0225 20.9362 18.0225 21.3882C18.0225 21.8459 17.6496 22.2188 17.1976 22.2188ZM21.6499 22.2188C21.1922 22.2188 20.825 21.8459 20.825 21.3882C20.825 20.9306 21.1922 20.569 21.6499 20.569C22.1019 20.569 22.4748 20.9306 22.4748 21.3882C22.4748 21.8459 22.1019 22.2188 21.6499 22.2188Z" fill="white"/>
</svg>
