<svg width="16" height="16" viewBox="0 0 16 16" fill="none" xmlns="http://www.w3.org/2000/svg">
<g id="CaretRight">
<path id="Vector" d="M11.354 8.35372L6.35403 13.3537C6.30757 13.4002 6.25242 13.437 6.19173 13.4622C6.13103 13.4873 6.06598 13.5003 6.00028 13.5003C5.93458 13.5003 5.86953 13.4873 5.80883 13.4622C5.74813 13.437 5.69298 13.4002 5.64653 13.3537C5.60007 13.3073 5.56322 13.2521 5.53808 13.1914C5.51294 13.1307 5.5 13.0657 5.5 13C5.5 12.9343 5.51294 12.8692 5.53808 12.8085C5.56322 12.7478 5.60007 12.6927 5.64653 12.6462L10.2934 7.99997L5.64653 3.35372C5.55271 3.2599 5.5 3.13265 5.5 2.99997C5.5 2.86729 5.55271 2.74004 5.64653 2.64622C5.74035 2.5524 5.8676 2.49969 6.00028 2.49969C6.13296 2.49969 6.26021 2.5524 6.35403 2.64622L11.354 7.64622C11.4005 7.69266 11.4374 7.7478 11.4626 7.8085C11.4877 7.8692 11.5007 7.93427 11.5007 7.99997C11.5007 8.06568 11.4877 8.13074 11.4626 8.19144C11.4374 8.25214 11.4005 8.30729 11.354 8.35372Z" fill="white"/>
</g>
</svg>
