<svg width="16" height="17" viewBox="0 0 16 17" fill="none" xmlns="http://www.w3.org/2000/svg">
<g id="icons">
<path id="close" fill-rule="evenodd" clip-rule="evenodd" d="M0.860128 1.09109C1.18665 0.76456 1.71606 0.76456 2.04258 1.09109L8.30754 7.35605L14.5725 1.09109C14.899 0.76456 15.4284 0.76456 15.755 1.09109C16.0815 1.41761 16.0815 1.94701 15.755 2.27354L9.49 8.5385L15.755 14.8035C16.0815 15.13 16.0815 15.6594 15.755 15.9859C15.4284 16.3124 14.899 16.3124 14.5725 15.9859L8.30754 9.72095L2.04258 15.9859C1.71606 16.3124 1.18665 16.3124 0.860128 15.9859C0.533603 15.6594 0.533603 15.13 0.860128 14.8035L7.12509 8.5385L0.860128 2.27354C0.533603 1.94701 0.533603 1.41761 0.860128 1.09109Z" fill="white"/>
</g>
</svg>
