<svg width="21" height="20" viewBox="0 0 21 20" fill="none" xmlns="http://www.w3.org/2000/svg">
<g id="DiceFive">
<path id="Vector" d="M15.5 2.50003H5.5C4.83696 2.50003 4.20107 2.76342 3.73223 3.23226C3.26339 3.7011 3 4.33699 3 5.00003V15C3 15.6631 3.26339 16.299 3.73223 16.7678C4.20107 17.2366 4.83696 17.5 5.5 17.5H15.5C16.163 17.5 16.7989 17.2366 17.2678 16.7678C17.7366 16.299 18 15.6631 18 15V5.00003C18 4.33699 17.7366 3.7011 17.2678 3.23226C16.7989 2.76342 16.163 2.50003 15.5 2.50003ZM16.75 15C16.75 15.3316 16.6183 15.6495 16.3839 15.8839C16.1495 16.1183 15.8315 16.25 15.5 16.25H5.5C5.16848 16.25 4.85054 16.1183 4.61612 15.8839C4.3817 15.6495 4.25 15.3316 4.25 15V5.00003C4.25 4.66851 4.3817 4.35057 4.61612 4.11615C4.85054 3.88173 5.16848 3.75003 5.5 3.75003H15.5C15.8315 3.75003 16.1495 3.88173 16.3839 4.11615C16.6183 4.35057 16.75 4.66851 16.75 5.00003V15ZM8.625 7.18753C8.625 7.37295 8.57002 7.55421 8.467 7.70838C8.36399 7.86255 8.21757 7.98271 8.04627 8.05367C7.87496 8.12462 7.68646 8.14319 7.5046 8.10702C7.32275 8.07084 7.1557 7.98155 7.02459 7.85044C6.89348 7.71933 6.80419 7.55229 6.76801 7.37043C6.73184 7.18857 6.75041 7.00007 6.82136 6.82876C6.89232 6.65746 7.01248 6.51104 7.16665 6.40803C7.32082 6.30501 7.50208 6.25003 7.6875 6.25003C7.93614 6.25003 8.1746 6.3488 8.35041 6.52462C8.52623 6.70043 8.625 6.93889 8.625 7.18753ZM14.25 7.18753C14.25 7.37295 14.195 7.55421 14.092 7.70838C13.989 7.86255 13.8426 7.98271 13.6713 8.05367C13.5 8.12462 13.3115 8.14319 13.1296 8.10702C12.9477 8.07084 12.7807 7.98155 12.6496 7.85044C12.5185 7.71933 12.4292 7.55229 12.393 7.37043C12.3568 7.18857 12.3754 7.00007 12.4464 6.82876C12.5173 6.65746 12.6375 6.51104 12.7917 6.40803C12.9458 6.30501 13.1271 6.25003 13.3125 6.25003C13.5611 6.25003 13.7996 6.3488 13.9754 6.52462C14.1512 6.70043 14.25 6.93889 14.25 7.18753ZM8.625 12.8125C8.625 12.998 8.57002 13.1792 8.467 13.3334C8.36399 13.4875 8.21757 13.6077 8.04627 13.6787C7.87496 13.7496 7.68646 13.7682 7.5046 13.732C7.32275 13.6958 7.1557 13.6066 7.02459 13.4754C6.89348 13.3443 6.80419 13.1773 6.76801 12.9954C6.73184 12.8136 6.75041 12.6251 6.82136 12.4538C6.89232 12.2825 7.01248 12.136 7.16665 12.033C7.32082 11.93 7.50208 11.875 7.6875 11.875C7.93614 11.875 8.1746 11.9738 8.35041 12.1496C8.52623 12.3254 8.625 12.5639 8.625 12.8125ZM11.4375 10C11.4375 10.1855 11.3825 10.3667 11.2795 10.5209C11.1765 10.675 11.0301 10.7952 10.8588 10.8662C10.6875 10.9371 10.499 10.9557 10.3171 10.9195C10.1352 10.8833 9.9682 10.7941 9.83709 10.6629C9.70598 10.5318 9.61669 10.3648 9.58051 10.1829C9.54434 10.0011 9.56291 9.81257 9.63386 9.64126C9.70482 9.46996 9.82498 9.32354 9.97915 9.22053C10.1333 9.11751 10.3146 9.06253 10.5 9.06253C10.7486 9.06253 10.9871 9.1613 11.1629 9.33712C11.3387 9.51293 11.4375 9.75139 11.4375 10ZM14.25 12.8125C14.25 12.998 14.195 13.1792 14.092 13.3334C13.989 13.4875 13.8426 13.6077 13.6713 13.6787C13.5 13.7496 13.3115 13.7682 13.1296 13.732C12.9477 13.6958 12.7807 13.6066 12.6496 13.4754C12.5185 13.3443 12.4292 13.1773 12.393 12.9954C12.3568 12.8136 12.3754 12.6251 12.4464 12.4538C12.5173 12.2825 12.6375 12.136 12.7917 12.033C12.9458 11.93 13.1271 11.875 13.3125 11.875C13.5611 11.875 13.7996 11.9738 13.9754 12.1496C14.1512 12.3254 14.25 12.5639 14.25 12.8125Z" fill="#F8F7F8"/>
</g>
</svg>
