<svg width="16" height="16" viewBox="0 0 16 16" fill="none" xmlns="http://www.w3.org/2000/svg">
<g clip-path="url(#clip0_86_159)">
<path d="M7.66667 14.6667H3.33334C2.22877 14.6667 1.33333 13.7713 1.33333 12.6667V3.33337C1.33333 2.2288 2.22876 1.33337 3.33333 1.33337H5.55537C6.05575 1.33337 6.53796 1.52094 6.90682 1.85907L9.68478 4.40553C10.098 4.78435 10.3333 5.31923 10.3333 5.87984V6.33337" stroke="white" stroke-linejoin="round"/>
<path d="M6.33333 1.66675V3.00008C6.33333 4.10465 7.22876 5.00008 8.33333 5.00008H10" stroke="white" stroke-linejoin="round"/>
<path d="M10 8V7.5C9.72386 7.5 9.5 7.72386 9.5 8H10ZM12.6667 8H13.1667C13.1667 7.72386 12.9428 7.5 12.6667 7.5V8ZM10 10V10.5C10.2761 10.5 10.5 10.2761 10.5 10H10ZM8 10V9.5C7.72386 9.5 7.5 9.72386 7.5 10H8ZM8 12.6667H7.5C7.5 12.9428 7.72386 13.1667 8 13.1667V12.6667ZM10 12.6667H10.5C10.5 12.3905 10.2761 12.1667 10 12.1667V12.6667ZM10 14.6667H9.5C9.5 14.9428 9.72386 15.1667 10 15.1667V14.6667ZM12.6667 14.6667V15.1667C12.9428 15.1667 13.1667 14.9428 13.1667 14.6667H12.6667ZM12.6667 12.6667V12.1667C12.3905 12.1667 12.1667 12.3905 12.1667 12.6667H12.6667ZM14.6667 12.6667V13.1667C14.9428 13.1667 15.1667 12.9428 15.1667 12.6667H14.6667ZM14.6667 10H15.1667C15.1667 9.72386 14.9428 9.5 14.6667 9.5V10ZM12.6667 10H12.1667C12.1667 10.2761 12.3905 10.5 12.6667 10.5V10ZM10 8.5H12.6667V7.5H10V8.5ZM10.5 10V8H9.5V10H10.5ZM8 10.5H10V9.5H8V10.5ZM8.5 12.6667V10H7.5V12.6667H8.5ZM10 12.1667H8V13.1667H10V12.1667ZM10.5 14.6667V12.6667H9.5V14.6667H10.5ZM12.6667 14.1667H10V15.1667H12.6667V14.1667ZM12.1667 12.6667V14.6667H13.1667V12.6667H12.1667ZM14.6667 12.1667H12.6667V13.1667H14.6667V12.1667ZM14.1667 10V12.6667H15.1667V10H14.1667ZM12.6667 10.5H14.6667V9.5H12.6667V10.5ZM12.1667 8V10H13.1667V8H12.1667Z" fill="white"/>
</g>
<defs>
<clipPath id="clip0_86_159">
<rect width="16" height="16" fill="white"/>
</clipPath>
</defs>
</svg>
