<svg width="20" height="20" viewBox="0 0 20 20" fill="none" xmlns="http://www.w3.org/2000/svg">
<path d="M19.8281 10.1716C19.9229 4.74346 15.5993 0.266304 10.1712 0.171556C4.74312 0.0768083 0.265965 4.40034 0.171217 9.82844C0.0764695 15.2565 4.40001 19.7337 9.8281 19.8284C15.2562 19.9232 19.7334 15.5997 19.8281 10.1716Z" fill="white" fill-opacity="0.2"/>
<path d="M16.5799 10.2875L13.3852 14.711C13.3397 14.7744 13.2797 14.8261 13.2103 14.8617C13.1408 14.8973 13.0639 14.9159 12.9858 14.9159C12.9078 14.9159 12.8308 14.8973 12.7614 14.8617C12.6919 14.8261 12.632 14.7744 12.5865 14.711L6.59758 6.41572L3.80158 10.2863C3.76382 10.3387 3.7161 10.3832 3.66115 10.4172C3.6062 10.4512 3.54509 10.474 3.4813 10.4844C3.41752 10.4948 3.35232 10.4925 3.28942 10.4777C3.22652 10.4629 3.16715 10.4358 3.11471 10.3981C3.06227 10.3603 3.01778 10.3126 2.98378 10.2576C2.94978 10.2027 2.92693 10.1416 2.91655 10.0778C2.90617 10.014 2.90845 9.94882 2.92326 9.88592C2.93808 9.82302 2.96514 9.76365 3.0029 9.71121L6.19763 5.28774C6.24313 5.22432 6.30309 5.17264 6.37253 5.137C6.44198 5.10136 6.51891 5.08276 6.59697 5.08276C6.67503 5.08276 6.75196 5.10136 6.82141 5.137C6.89085 5.17264 6.95081 5.22432 6.99631 5.28774L12.987 13.5817L15.783 9.71121C15.8208 9.65877 15.8685 9.61428 15.9235 9.58028C15.9784 9.54627 16.0395 9.52343 16.1033 9.51305C16.1671 9.50266 16.2323 9.50495 16.2952 9.51976C16.3581 9.53458 16.4175 9.56164 16.4699 9.59939C16.5224 9.63715 16.5669 9.68487 16.6009 9.73982C16.6349 9.79478 16.6577 9.85589 16.6681 9.91967C16.6785 9.98345 16.6762 10.0487 16.6614 10.1116C16.6466 10.1745 16.6195 10.2338 16.5817 10.2863L16.5799 10.2875Z" fill="white"/>
</svg>
