<svg width="40" height="40" viewBox="0 0 40 40" fill="none" xmlns="http://www.w3.org/2000/svg">
<rect width="40" height="40" rx="20" fill="#4F4F4F"/>
<path d="M15.5 11.75C14.7583 11.75 14.0333 11.9699 13.4166 12.382C12.7999 12.794 12.3193 13.3797 12.0355 14.0649C11.7516 14.7502 11.6774 15.5042 11.8221 16.2316C11.9668 16.959 12.3239 17.6272 12.8484 18.1517C13.3728 18.6761 14.041 19.0333 14.7684 19.1779C15.4958 19.3226 16.2498 19.2484 16.9351 18.9646C17.6203 18.6807 18.206 18.2001 18.618 17.5834C19.0301 16.9667 19.25 16.2417 19.25 15.5C19.25 14.5054 18.8549 13.5516 18.1517 12.8484C17.4484 12.1451 16.4946 11.75 15.5 11.75ZM15.5 17.75C15.055 17.75 14.62 17.618 14.25 17.3708C13.88 17.1236 13.5916 16.7722 13.4213 16.361C13.251 15.9499 13.2064 15.4975 13.2932 15.061C13.3801 14.6246 13.5943 14.2237 13.909 13.909C14.2237 13.5943 14.6246 13.3801 15.061 13.2932C15.4975 13.2064 15.9499 13.251 16.361 13.4213C16.7722 13.5916 17.1236 13.88 17.3708 14.25C17.618 14.62 17.75 15.055 17.75 15.5C17.75 16.0967 17.5129 16.669 17.091 17.091C16.669 17.5129 16.0967 17.75 15.5 17.75ZM24.5 19.25C25.2417 19.25 25.9667 19.0301 26.5834 18.618C27.2001 18.206 27.6807 17.6203 27.9646 16.9351C28.2484 16.2498 28.3226 15.4958 28.1779 14.7684C28.0333 14.041 27.6761 13.3728 27.1517 12.8484C26.6272 12.3239 25.959 11.9668 25.2316 11.8221C24.5042 11.6774 23.7502 11.7516 23.0649 12.0355C22.3797 12.3193 21.794 12.7999 21.382 13.4166C20.9699 14.0333 20.75 14.7583 20.75 15.5C20.75 16.4946 21.1451 17.4484 21.8484 18.1517C22.5516 18.8549 23.5054 19.25 24.5 19.25ZM24.5 13.25C24.945 13.25 25.38 13.382 25.75 13.6292C26.12 13.8764 26.4084 14.2278 26.5787 14.639C26.749 15.0501 26.7936 15.5025 26.7068 15.939C26.62 16.3754 26.4057 16.7763 26.091 17.091C25.7763 17.4057 25.3754 17.62 24.939 17.7068C24.5025 17.7936 24.0501 17.749 23.639 17.5787C23.2278 17.4084 22.8764 17.12 22.6292 16.75C22.382 16.38 22.25 15.945 22.25 15.5C22.25 14.9033 22.4871 14.331 22.909 13.909C23.331 13.4871 23.9033 13.25 24.5 13.25ZM15.5 20.75C14.7583 20.75 14.0333 20.9699 13.4166 21.382C12.7999 21.794 12.3193 22.3797 12.0355 23.0649C11.7516 23.7502 11.6774 24.5042 11.8221 25.2316C11.9668 25.959 12.3239 26.6272 12.8484 27.1517C13.3728 27.6761 14.041 28.0333 14.7684 28.1779C15.4958 28.3226 16.2498 28.2484 16.9351 27.9646C17.6203 27.6807 18.206 27.2001 18.618 26.5834C19.0301 25.9667 19.25 25.2417 19.25 24.5C19.25 23.5054 18.8549 22.5516 18.1517 21.8484C17.4484 21.1451 16.4946 20.75 15.5 20.75ZM15.5 26.75C15.055 26.75 14.62 26.618 14.25 26.3708C13.88 26.1236 13.5916 25.7722 13.4213 25.361C13.251 24.9499 13.2064 24.4975 13.2932 24.061C13.3801 23.6246 13.5943 23.2237 13.909 22.909C14.2237 22.5943 14.6246 22.3801 15.061 22.2932C15.4975 22.2064 15.9499 22.251 16.361 22.4213C16.7722 22.5916 17.1236 22.88 17.3708 23.25C17.618 23.62 17.75 24.055 17.75 24.5C17.75 25.0967 17.5129 25.669 17.091 26.091C16.669 26.5129 16.0967 26.75 15.5 26.75ZM28.25 24.5C28.25 24.6989 28.171 24.8897 28.0303 25.0303C27.8897 25.171 27.6989 25.25 27.5 25.25H25.25V27.5C25.25 27.6989 25.171 27.8897 25.0303 28.0303C24.8897 28.171 24.6989 28.25 24.5 28.25C24.3011 28.25 24.1103 28.171 23.9697 28.0303C23.829 27.8897 23.75 27.6989 23.75 27.5V25.25H21.5C21.3011 25.25 21.1103 25.171 20.9697 25.0303C20.829 24.8897 20.75 24.6989 20.75 24.5C20.75 24.3011 20.829 24.1103 20.9697 23.9697C21.1103 23.829 21.3011 23.75 21.5 23.75H23.75V21.5C23.75 21.3011 23.829 21.1103 23.9697 20.9697C24.1103 20.829 24.3011 20.75 24.5 20.75C24.6989 20.75 24.8897 20.829 25.0303 20.9697C25.171 21.1103 25.25 21.3011 25.25 21.5V23.75H27.5C27.6989 23.75 27.8897 23.829 28.0303 23.9697C28.171 24.1103 28.25 24.3011 28.25 24.5Z" fill="#888888"/>
</svg>
