<svg width="24" height="24" viewBox="0 0 24 24" fill="none" xmlns="http://www.w3.org/2000/svg">
<g id="Favorites">
<path id="Vector" d="M4.8002 3.2C3.9162 3.2 3.2002 3.916 3.2002 4.8V9.6C3.2002 10.484 3.9162 11.2 4.8002 11.2H9.6002C10.4842 11.2 11.2002 10.484 11.2002 9.6V4.8C11.2002 3.916 10.4842 3.2 9.6002 3.2H4.8002ZM14.4002 3.2C13.5162 3.2 12.8002 3.916 12.8002 4.8V9.6C12.8002 10.484 13.5162 11.2 14.4002 11.2H19.2002C20.0842 11.2 20.8002 10.484 20.8002 9.6V4.8C20.8002 3.916 20.0842 3.2 19.2002 3.2H14.4002ZM7.2002 4.8C8.5258 4.8 9.6002 5.8744 9.6002 7.2C9.6002 8.5256 8.5258 9.6 7.2002 9.6C5.8746 9.6 4.8002 8.5256 4.8002 7.2C4.8002 5.8744 5.8746 4.8 7.2002 4.8ZM14.4002 4.8H19.2002V9.6H14.4002V4.8ZM4.8002 12.8C3.9162 12.8 3.2002 13.516 3.2002 14.4V19.2C3.2002 20.084 3.9162 20.8 4.8002 20.8H9.6002C10.4842 20.8 11.2002 20.084 11.2002 19.2V14.4C11.2002 13.516 10.4842 12.8 9.6002 12.8H4.8002ZM14.4002 12.8C13.5162 12.8 12.8002 13.516 12.8002 14.4V19.2C12.8002 20.084 13.5162 20.8 14.4002 20.8H19.2002C20.0842 20.8 20.8002 20.084 20.8002 19.2V14.4C20.8002 13.516 20.0842 12.8 19.2002 12.8H14.4002ZM16.8002 14L19.6002 16.8L16.8002 19.6L14.0002 16.8L16.8002 14ZM7.2002 14.4L9.50957 18.4H4.89082L7.2002 14.4Z" fill="#B7AFB5"/>
</g>
</svg>
