<svg width="279" height="46" viewBox="0 0 279 46" fill="none" xmlns="http://www.w3.org/2000/svg">
<path d="M142.981 16.8513L135.507 24.4101C135.324 24.5953 135.106 24.7424 134.865 24.8429C134.625 24.9433 134.367 24.995 134.107 24.9951H125.916L122.208 28.7076C122.115 28.8005 122.005 28.8742 121.883 28.9245C121.762 28.9748 121.632 29.0006 121.501 29.0006C121.369 29.0006 121.239 28.9748 121.118 28.9245C120.996 28.8742 120.886 28.8005 120.793 28.7076C120.7 28.6147 120.626 28.5044 120.576 28.383C120.526 28.2616 120.5 28.1315 120.5 28.0001C120.5 27.8687 120.526 27.7386 120.576 27.6172C120.626 27.4958 120.7 27.3855 120.793 27.2926L123.617 24.4701L132.088 16.0001H142.626C142.724 16.0002 142.82 16.0295 142.902 16.0842C142.984 16.139 143.048 16.2167 143.086 16.3076C143.124 16.3986 143.134 16.4987 143.116 16.5954C143.097 16.6922 143.05 16.7812 142.981 16.8513ZM143.588 3.82133C142.054 2.55862 140.104 1.91216 138.119 2.00782C136.135 2.10348 134.256 2.93441 132.851 4.33883L131.651 5.52383C131.556 5.61645 131.502 5.74276 131.501 5.87508V13.7501L138.376 6.87508C138.565 6.69546 138.816 6.5968 139.077 6.60014C139.338 6.60348 139.587 6.70855 139.771 6.89295C139.956 7.07735 140.061 7.32649 140.064 7.58726C140.068 7.84802 139.969 8.09977 139.789 8.28883L134.089 14.0001H145.137C145.229 14.0003 145.319 13.9752 145.397 13.9276C145.476 13.8799 145.54 13.8116 145.582 13.7301C146.439 12.1008 146.708 10.2262 146.345 8.42154C145.982 6.61688 145.008 4.99237 143.588 3.82133ZM124.354 20.9038L129.501 15.7576V8.84508C129.5 8.74654 129.471 8.65024 129.416 8.56828C129.362 8.48633 129.284 8.42237 129.193 8.38444C129.102 8.34651 129.002 8.3363 128.905 8.3551C128.808 8.37389 128.719 8.42085 128.649 8.49008L124.087 13.0001C123.901 13.1853 123.753 13.4056 123.652 13.6483C123.552 13.8909 123.5 14.1511 123.501 14.4138V20.5501C123.5 20.649 123.53 20.7458 123.585 20.8281C123.64 20.9104 123.718 20.9745 123.809 21.0124C123.901 21.0503 124.001 21.0602 124.098 21.0408C124.195 21.0215 124.284 20.9738 124.354 20.9038Z" fill="#B7AFB5"/>
</svg>
