<svg width="20" height="20" viewBox="0 0 20 20" fill="none" xmlns="http://www.w3.org/2000/svg">
<path d="M16.5503 10.532L11.8793 15.2562C11.7648 15.372 11.6286 15.464 11.4784 15.5267C11.3282 15.5895 11.167 15.6218 11.0043 15.6219H5.88472L3.56753 17.9422C3.50947 18.0002 3.44053 18.0463 3.36466 18.0777C3.28879 18.1092 3.20747 18.1253 3.12535 18.1253C3.04323 18.1253 2.96191 18.1092 2.88604 18.0777C2.81017 18.0463 2.74123 18.0002 2.68316 17.9422C2.62509 17.8841 2.57903 17.8152 2.5476 17.7393C2.51618 17.6634 2.5 17.5821 2.5 17.5C2.5 17.4179 2.51618 17.3365 2.5476 17.2607C2.57903 17.1848 2.62509 17.1159 2.68316 17.0578L4.448 15.2937L9.74253 9.99999H16.3285C16.3901 10.0001 16.4502 10.0184 16.5015 10.0526C16.5527 10.0868 16.5927 10.1354 16.6164 10.1922C16.6401 10.249 16.6465 10.3116 16.6347 10.3721C16.623 10.4325 16.5936 10.4882 16.5503 10.532ZM16.93 2.38827C15.971 1.59908 14.7527 1.19504 13.5121 1.25482C12.2716 1.31461 11.0977 1.83395 10.2191 2.71171L9.4691 3.45233C9.41003 3.51022 9.37632 3.58916 9.37535 3.67186V8.59374L13.6722 4.29686C13.7904 4.1846 13.9477 4.12294 14.1107 4.12503C14.2737 4.12711 14.4294 4.19278 14.5446 4.30803C14.6599 4.42328 14.7256 4.579 14.7277 4.74197C14.7297 4.90495 14.6681 5.06229 14.5558 5.18046L10.9933 8.74999H17.898C17.9554 8.75011 18.0117 8.73442 18.0608 8.70466C18.1098 8.67489 18.1497 8.63219 18.1761 8.58124C18.7117 7.56297 18.8801 6.39131 18.6532 5.2634C18.4262 4.13549 17.8177 3.12017 16.93 2.38827ZM4.90894 13.0648L8.12535 9.84843V5.52811C8.12524 5.46652 8.10694 5.40634 8.07274 5.35512C8.03855 5.30389 7.98997 5.26392 7.93313 5.24022C7.87629 5.21651 7.8137 5.21013 7.75325 5.22188C7.69279 5.23362 7.63715 5.26297 7.59332 5.30624L4.74175 8.12499C4.62532 8.24075 4.53298 8.37844 4.47009 8.5301C4.4072 8.68177 4.375 8.84439 4.37535 9.00858V12.8437C4.3753 12.9056 4.3936 12.966 4.42793 13.0175C4.46227 13.0689 4.51109 13.109 4.56823 13.1327C4.62536 13.1564 4.68823 13.1625 4.74888 13.1505C4.80953 13.1384 4.86524 13.1086 4.90894 13.0648Z" fill="#2E292C"/>
</svg>
