<svg width="16" height="16" viewBox="0 0 16 16" fill="none" xmlns="http://www.w3.org/2000/svg">
<g id="FirstAid">
<path id="Vector" d="M13.5 5.5H10.5V2.5C10.5 2.23478 10.3946 1.98043 10.2071 1.79289C10.0196 1.60536 9.76522 1.5 9.5 1.5H6.5C6.23478 1.5 5.98043 1.60536 5.79289 1.79289C5.60536 1.98043 5.5 2.23478 5.5 2.5V5.5H2.5C2.23478 5.5 1.98043 5.60536 1.79289 5.79289C1.60536 5.98043 1.5 6.23478 1.5 6.5V9.5C1.5 9.76522 1.60536 10.0196 1.79289 10.2071C1.98043 10.3946 2.23478 10.5 2.5 10.5H5.5V13.5C5.5 13.7652 5.60536 14.0196 5.79289 14.2071C5.98043 14.3946 6.23478 14.5 6.5 14.5H9.5C9.76522 14.5 10.0196 14.3946 10.2071 14.2071C10.3946 14.0196 10.5 13.7652 10.5 13.5V10.5H13.5C13.7652 10.5 14.0196 10.3946 14.2071 10.2071C14.3946 10.0196 14.5 9.76522 14.5 9.5V6.5C14.5 6.23478 14.3946 5.98043 14.2071 5.79289C14.0196 5.60536 13.7652 5.5 13.5 5.5ZM13.5 9.5H10C9.86739 9.5 9.74021 9.55268 9.64645 9.64645C9.55268 9.74021 9.5 9.86739 9.5 10V13.5H6.5V10C6.5 9.86739 6.44732 9.74021 6.35355 9.64645C6.25979 9.55268 6.13261 9.5 6 9.5H2.5V6.5H6C6.13261 6.5 6.25979 6.44732 6.35355 6.35355C6.44732 6.25979 6.5 6.13261 6.5 6V2.5H9.5V6C9.5 6.13261 9.55268 6.25979 9.64645 6.35355C9.74021 6.44732 9.86739 6.5 10 6.5H13.5V9.5Z" fill="white"/>
</g>
</svg>
