<svg width="20" height="20" viewBox="0 0 20 20" fill="none" xmlns="http://www.w3.org/2000/svg">
<path d="M19.8281 10.1716C19.9229 4.74346 15.5993 0.266304 10.1712 0.171556C4.74312 0.0768083 0.265965 4.40034 0.171217 9.82844C0.0764695 15.2565 4.40001 19.7337 9.8281 19.8284C15.2562 19.9232 19.7334 15.5997 19.8281 10.1716Z" fill="white" fill-opacity="0.2"/>
<path d="M9.82989 3.6106C8.56618 3.6106 7.33084 3.98533 6.2801 4.68741C5.22936 5.3895 4.4104 6.38739 3.9268 7.55492C3.4432 8.72244 3.31667 10.0071 3.5632 11.2466C3.80974 12.486 4.41828 13.6245 5.31186 14.5181C6.20544 15.4117 7.34394 16.0202 8.58337 16.2667C9.82281 16.5133 11.1075 16.3868 12.275 15.9031C13.4426 15.4195 14.4405 14.6006 15.1425 13.5499C15.8446 12.4991 16.2194 11.2638 16.2194 10.0001C16.2176 8.30602 15.5438 6.68187 14.3459 5.484C13.1481 4.28613 11.5239 3.61238 9.82989 3.6106ZM9.82989 15.4065C8.7606 15.4065 7.71531 15.0894 6.82622 14.4954C5.93713 13.9013 5.24417 13.0569 4.83497 12.069C4.42577 11.0811 4.3187 9.99406 4.52731 8.94531C4.73592 7.89656 5.25084 6.93322 6.00694 6.17711C6.76305 5.421 7.72639 4.90608 8.77514 4.69747C9.8239 4.48886 10.911 4.59593 11.8989 5.00513C12.8868 5.41434 13.7311 6.1073 14.3252 6.99638C14.9193 7.88547 15.2364 8.93076 15.2364 10.0001C15.2347 11.4334 14.6646 12.8077 13.651 13.8212C12.6375 14.8348 11.2633 15.4049 9.82989 15.4065Z" fill="white"/>
</svg>
