<svg width="24" height="24" viewBox="0 0 24 24" fill="none" xmlns="http://www.w3.org/2000/svg">
<g id="15-seconds-forward">
<path id="Union" fill-rule="evenodd" clip-rule="evenodd" d="M16.0303 1.01545C15.8944 0.875817 15.7094 0.794562 15.5146 0.788885C15.3637 0.784537 15.2149 0.825868 15.0878 0.907467C14.9607 0.989067 14.8612 1.10714 14.8023 1.24622C14.7434 1.3853 14.7279 1.53892 14.7578 1.68698C14.7877 1.83503 14.8615 1.97062 14.9697 2.07599L16.1895 3.29572L14.9697 4.51545C14.8977 4.58456 14.8403 4.66733 14.8007 4.75893C14.7611 4.85053 14.7402 4.9491 14.7392 5.04888C14.7382 5.14866 14.7571 5.24764 14.7948 5.34002C14.8325 5.4324 14.8883 5.51633 14.9588 5.58689C15.0294 5.65745 15.1133 5.71322 15.2057 5.75093C15.2981 5.78865 15.3971 5.80755 15.4968 5.80654C15.5966 5.80553 15.6952 5.78461 15.7868 5.74503C15.8784 5.70544 15.9612 5.64797 16.0303 5.57599L17.7803 3.82599C17.9209 3.68534 17.9999 3.4946 17.9999 3.29572C17.9999 3.09684 17.9209 2.90611 17.7803 2.76545L16.0303 1.01545ZM12.5303 1.01545C12.3944 0.875817 12.2094 0.794562 12.0146 0.788885C11.8637 0.784537 11.7149 0.825868 11.5878 0.907467C11.4607 0.989067 11.3612 1.10714 11.3023 1.24622C11.2434 1.3853 11.2279 1.53892 11.2578 1.68698C11.2877 1.83503 11.3615 1.97062 11.4697 2.07599L11.9404 2.5467C6.45402 2.57904 2 7.05185 2 12.5457C2 18.0596 6.48615 22.5457 12 22.5457C17.5139 22.5457 22 18.0596 22 12.5457C22 12.4604 21.9992 12.3749 21.9971 12.2899C21.992 12.091 21.9082 11.9022 21.7639 11.7651C21.6197 11.628 21.4269 11.5539 21.228 11.5589C21.0291 11.564 20.8404 11.6478 20.7033 11.792C20.5662 11.9363 20.492 12.129 20.4971 12.3279C20.4989 12.3999 20.5 12.4731 20.5 12.5457C20.5 17.2489 16.7031 21.0457 12 21.0457C7.29685 21.0457 3.5 17.2489 3.5 12.5457C3.5 7.86401 7.2631 4.08305 11.9365 4.04865L11.4697 4.51545C11.3977 4.58456 11.3403 4.66733 11.3007 4.75893C11.2611 4.85053 11.2402 4.9491 11.2392 5.04888C11.2382 5.14866 11.2571 5.24764 11.2948 5.34002C11.3325 5.4324 11.3883 5.51633 11.4588 5.58689C11.5294 5.65745 11.6133 5.71322 11.7057 5.75093C11.7981 5.78865 11.8971 5.80755 11.9968 5.80654C12.0966 5.80553 12.1952 5.78461 12.2868 5.74503C12.3784 5.70544 12.4612 5.64797 12.5303 5.57599L14.2803 3.82599C14.4209 3.68534 14.4999 3.4946 14.4999 3.29572C14.4999 3.09684 14.4209 2.90611 14.2803 2.76545L12.5303 1.01545ZM9.16418 9.07688C9.2118 9.06088 9.26071 9.05073 9.30968 9.04661C9.45661 9.03426 9.60443 9.07469 9.72668 9.16282C9.88968 9.28032 9.98644 9.46866 9.98644 9.66966V15.4197C9.98644 15.7657 9.70644 16.0456 9.36144 16.0456C9.01644 16.0456 8.73644 15.7656 8.73644 15.4206V10.5378L8.05968 10.7634C7.73168 10.8714 7.37817 10.6949 7.26867 10.3679C7.15967 10.0404 7.33668 9.68638 7.66418 9.57688L9.16418 9.07688ZM11.9598 9.19298C12.0723 9.09851 12.2145 9.04669 12.3614 9.04661H15.1612C15.2441 9.04544 15.3263 9.06074 15.4031 9.09162C15.48 9.12251 15.55 9.16836 15.6089 9.22651C15.6679 9.28466 15.7148 9.35396 15.7467 9.43037C15.7787 9.50678 15.7951 9.58878 15.7951 9.67161C15.7951 9.75444 15.7787 9.83644 15.7467 9.91285C15.7148 9.98926 15.6679 10.0586 15.6089 10.1167C15.55 10.1749 15.48 10.2207 15.4031 10.2516C15.3263 10.2825 15.2441 10.2978 15.1612 10.2966H12.8868L12.6896 11.4265H13.6925C14.9529 11.4265 15.9884 12.462 15.9884 13.7224C15.9884 14.375 15.7444 14.9821 15.298 15.3962C14.8515 15.8104 14.2338 16.0183 13.5616 16.0183C12.3223 16.0183 11.5363 15.5067 11.3243 15.3503C11.2572 15.302 11.2003 15.2408 11.157 15.1704C11.1137 15.0999 11.0848 15.0216 11.072 14.9399C11.0592 14.8582 11.0627 14.7747 11.0823 14.6944C11.102 14.6141 11.1374 14.5384 11.1865 14.4719C11.2356 14.4053 11.2975 14.3492 11.3684 14.3067C11.4394 14.2642 11.5181 14.2363 11.5999 14.2244C11.6818 14.2125 11.7652 14.2171 11.8452 14.2377C11.9253 14.2583 12.0006 14.2946 12.0665 14.3445C12.0836 14.3571 12.686 14.7683 13.5616 14.7683C13.984 14.7683 14.2677 14.6478 14.4484 14.4802C14.629 14.3126 14.7384 14.0848 14.7384 13.7224C14.7384 13.1398 14.2751 12.6765 13.6925 12.6765H11.9454C11.8542 12.6764 11.7641 12.6564 11.6814 12.6178C11.5988 12.5793 11.5255 12.523 11.4669 12.4532C11.4083 12.3833 11.3657 12.3014 11.342 12.2133C11.3184 12.1252 11.3144 12.0329 11.3302 11.9431L11.7462 9.56321C11.7717 9.41853 11.8473 9.28745 11.9598 9.19298Z" fill="#F8F7F8"/>
</g>
</svg>
