<svg width="16" height="16" viewBox="0 0 16 16" fill="none" xmlns="http://www.w3.org/2000/svg">
<path d="M11 7H9.50001C9.3674 7 9.24022 6.94732 9.14645 6.85355C9.05269 6.75979 9.00001 6.63261 9.00001 6.5C9.00001 6.36739 9.05269 6.24021 9.14645 6.14645C9.24022 6.05268 9.3674 6 9.50001 6H11C11.1326 6 11.2598 6.05268 11.3536 6.14645C11.4473 6.24021 11.5 6.36739 11.5 6.5C11.5 6.63261 11.4473 6.75979 11.3536 6.85355C11.2598 6.94732 11.1326 7 11 7ZM6.50001 6H6.00001V5.5C6.00001 5.36739 5.94733 5.24021 5.85356 5.14645C5.75979 5.05268 5.63262 5 5.50001 5C5.3674 5 5.24022 5.05268 5.14645 5.14645C5.05269 5.24021 5.00001 5.36739 5.00001 5.5V6H4.50001C4.3674 6 4.24022 6.05268 4.14645 6.14645C4.05269 6.24021 4.00001 6.36739 4.00001 6.5C4.00001 6.63261 4.05269 6.75979 4.14645 6.85355C4.24022 6.94732 4.3674 7 4.50001 7H5.00001V7.5C5.00001 7.63261 5.05269 7.75979 5.14645 7.85355C5.24022 7.94732 5.3674 8 5.50001 8C5.63262 8 5.75979 7.94732 5.85356 7.85355C5.94733 7.75979 6.00001 7.63261 6.00001 7.5V7H6.50001C6.63262 7 6.75979 6.94732 6.85356 6.85355C6.94733 6.75979 7.00001 6.63261 7.00001 6.5C7.00001 6.36739 6.94733 6.24021 6.85356 6.14645C6.75979 6.05268 6.63262 6 6.50001 6ZM15.0925 12.5406C14.9041 12.8097 14.659 13.0343 14.3745 13.1985C14.09 13.3628 13.773 13.4628 13.4457 13.4914C13.1185 13.5201 12.7889 13.4767 12.4802 13.3644C12.1715 13.2521 11.8911 13.0735 11.6588 12.8413C11.6513 12.8338 11.6438 12.8262 11.6369 12.8181L9.15501 10H6.84251L4.36313 12.8181L4.34126 12.8413C3.91888 13.2627 3.34669 13.4996 2.75001 13.5C2.42153 13.4999 2.09707 13.4278 1.7994 13.2889C1.50174 13.15 1.2381 12.9476 1.027 12.696C0.8159 12.4443 0.662464 12.1495 0.577469 11.8322C0.492473 11.5149 0.47798 11.1829 0.535007 10.8594C0.534706 10.8565 0.534706 10.8535 0.535007 10.8506L1.55813 5.595C1.7104 4.72817 2.16329 3.94273 2.83723 3.3767C3.51117 2.81066 4.36303 2.50025 5.24313 2.5H10.75C11.6275 2.5014 12.4767 2.81004 13.1503 3.37233C13.8239 3.93462 14.2793 4.71505 14.4375 5.57812C14.4375 5.58187 14.4375 5.58563 14.4375 5.58938L15.4606 10.85C15.4609 10.8529 15.4609 10.8558 15.4606 10.8588C15.5136 11.1495 15.5083 11.4479 15.4451 11.7366C15.3819 12.0253 15.2621 12.2986 15.0925 12.5406ZM10.75 9C11.4794 9 12.1788 8.71027 12.6946 8.19454C13.2103 7.67882 13.5 6.97935 13.5 6.25C13.5 5.52065 13.2103 4.82118 12.6946 4.30546C12.1788 3.78973 11.4794 3.5 10.75 3.5H5.24313C4.59748 3.50058 3.97271 3.72883 3.47874 4.14461C2.98477 4.56038 2.65325 5.13704 2.54251 5.77313V5.78125L1.51876 11.0369C1.47351 11.2974 1.51206 11.5656 1.62887 11.8029C1.74568 12.0401 1.93473 12.2343 2.16883 12.3573C2.40293 12.4803 2.67002 12.5259 2.93167 12.4875C3.19333 12.4492 3.43608 12.3288 3.62501 12.1438L6.24501 9.16938C6.29192 9.11615 6.34962 9.07353 6.41428 9.04432C6.47893 9.01512 6.54906 9.00001 6.62001 9H10.75ZM14.4813 11.0369L13.935 8.22437C13.599 8.76687 13.1302 9.21467 12.5729 9.52539C12.0155 9.83611 11.3881 9.99946 10.75 10H10.4875L12.375 12.1444C12.5173 12.2828 12.6904 12.3855 12.8801 12.4441C13.0698 12.5026 13.2707 12.5154 13.4663 12.4812C13.7921 12.4237 14.0818 12.2394 14.2719 11.9687C14.4621 11.6979 14.5371 11.3629 14.4806 11.0369H14.4813Z" fill="white"/>
</svg>
