<svg width="28" height="28" viewBox="0 0 28 28" fill="none" xmlns="http://www.w3.org/2000/svg">
<g clip-path="url(#clip0_1879_433)">
<g clip-path="url(#clip1_1879_433)">
<path fill-rule="evenodd" clip-rule="evenodd" d="M23.6015 14.227C23.6015 13.5179 23.5378 12.8361 23.4196 12.1816H14.0015V16.0497H19.3833C19.1515 17.2997 18.4469 18.3588 17.3878 19.0679V21.577H20.6196C22.5106 19.8361 23.6015 17.2725 23.6015 14.227Z" fill="#4285F4"/>
<path fill-rule="evenodd" clip-rule="evenodd" d="M13.9994 24.0002C16.6994 24.0002 18.963 23.1048 20.6175 21.5775L17.3857 19.0684C16.4903 19.6684 15.3448 20.023 13.9994 20.023C11.3948 20.023 9.19026 18.2639 8.4039 15.9002H5.06299V18.4911C6.70844 21.7593 10.0903 24.0002 13.9994 24.0002Z" fill="#34A853"/>
<path fill-rule="evenodd" clip-rule="evenodd" d="M8.40455 15.8998C8.20455 15.2998 8.09091 14.6589 8.09091 13.9998C8.09091 13.3407 8.20455 12.6998 8.40455 12.0998V9.5089H5.06364C4.38636 10.8589 4 12.3862 4 13.9998C4 15.6134 4.38636 17.1407 5.06364 18.4907L8.40455 15.8998Z" fill="#FBBC05"/>
<path fill-rule="evenodd" clip-rule="evenodd" d="M13.9994 7.97727C15.4675 7.97727 16.7857 8.48182 17.8221 9.47273L20.6903 6.60455C18.9584 4.99091 16.6948 4 13.9994 4C10.0903 4 6.70844 6.24091 5.06299 9.50909L8.4039 12.1C9.19026 9.73636 11.3948 7.97727 13.9994 7.97727Z" fill="#EA4335"/>
</g>
</g>
<defs>
<clipPath id="clip0_1879_433">
<rect width="20" height="20" fill="white" transform="translate(4 4)"/>
</clipPath>
<clipPath id="clip1_1879_433">
<rect width="20" height="20" fill="white" transform="translate(4 4)"/>
</clipPath>
</defs>
</svg>
