<svg width="16" height="16" viewBox="0 0 16 16" fill="none" xmlns="http://www.w3.org/2000/svg">
<g id="Hipnosys">
<path id="Vector" d="M5.89006 14.2945C2.74281 14.2945 0.193359 11.745 0.193359 8.59778C0.193359 4.72965 3.34061 1.5824 7.20874 1.5824C11.9912 1.5824 15.8593 5.46811 15.8593 10.2505C15.8593 10.4967 15.6659 10.6901 15.4197 10.6901C15.1736 10.6901 14.9802 10.4967 14.9802 10.2505C14.9802 5.96042 11.4989 2.46152 7.20874 2.46152C3.81534 2.46152 1.07248 5.22196 1.07248 8.59778C1.07248 11.2527 3.23512 13.4154 5.89006 13.4154C7.96479 13.4154 9.6527 11.7275 9.6527 9.65273C9.6527 8.03515 8.33402 6.73405 6.73402 6.73405C5.48567 6.73405 4.48347 7.73624 4.48347 8.9846C4.48347 9.93405 5.2571 10.6901 6.18896 10.6901C6.89226 10.6901 7.47248 10.1099 7.47248 9.40657C7.47248 8.89668 7.0505 8.47471 6.54061 8.47471C6.17138 8.47471 5.87248 8.77361 5.87248 9.14284C5.87248 9.38899 5.67907 9.5824 5.43292 9.5824C5.18677 9.5824 4.99336 9.38899 4.99336 9.14284C4.99336 8.29888 5.67907 7.59558 6.54061 7.59558C7.54281 7.59558 8.3516 8.40438 8.3516 9.40657C8.3516 10.6022 7.38457 11.5692 6.18896 11.5692C4.76479 11.5692 3.58677 10.4088 3.58677 8.96701C3.58677 7.24394 4.99336 5.83734 6.71644 5.83734C8.80874 5.83734 10.5142 7.54284 10.5142 9.65273C10.5318 12.2198 8.4571 14.2945 5.89006 14.2945Z" fill="white"/>
</g>
</svg>
