<svg width="48" height="48" viewBox="0 0 48 48" fill="none" xmlns="http://www.w3.org/2000/svg">
<rect width="48" height="48" rx="24" fill="#F8F7F8"/>
<path d="M32.7806 24.531L26.0306 31.281C25.8899 31.4218 25.699 31.5008 25.5 31.5008C25.301 31.5008 25.1101 31.4218 24.9694 31.281C24.8286 31.1403 24.7496 30.9494 24.7496 30.7504C24.7496 30.5514 24.8286 30.3605 24.9694 30.2198L30.4397 24.7504H15.75C15.5511 24.7504 15.3603 24.6714 15.2197 24.5307C15.079 24.3901 15 24.1993 15 24.0004C15 23.8015 15.079 23.6107 15.2197 23.4701C15.3603 23.3294 15.5511 23.2504 15.75 23.2504H30.4397L24.9694 17.781C24.8286 17.6403 24.7496 17.4494 24.7496 17.2504C24.7496 17.0514 24.8286 16.8605 24.9694 16.7198C25.1101 16.5791 25.301 16.5 25.5 16.5C25.699 16.5 25.8899 16.5791 26.0306 16.7198L32.7806 23.4698C32.8504 23.5394 32.9057 23.6222 32.9434 23.7132C32.9812 23.8043 33.0006 23.9019 33.0006 24.0004C33.0006 24.099 32.9812 24.1966 32.9434 24.2876C32.9057 24.3787 32.8504 24.4614 32.7806 24.531Z" fill="#2E292C"/>
</svg>
