<svg width="26" height="22" viewBox="0 0 26 22" fill="none" xmlns="http://www.w3.org/2000/svg">
<path d="M11.3897 16.9757C8.15734 16.8474 5.56848 14.2171 5.56848 11C5.56848 7.70195 8.29037 5.01776 11.6368 5.01776C14.9833 5.01776 17.7052 7.70102 17.7052 11C17.7052 13.4108 16.2721 15.5592 14.0078 16.5312H21.3338C22.2631 14.9258 22.7952 12.9764 22.7952 11C22.7952 4.93405 17.7892 0 11.6368 0C5.48451 0 0.477539 4.93498 0.477539 11C0.477539 17.065 5.48356 22 11.6359 22H26.0001V16.9813L11.3897 16.9757Z" fill="#4F4F4F"/>
<path d="M1.75485 16.9941H0V21.8975H8.43458C5.64947 21.1172 3.28231 19.3444 1.75485 16.9941Z" fill="#4F4F4F"/>
</svg>
