<svg width="61" height="60" viewBox="0 0 61 60" fill="none" xmlns="http://www.w3.org/2000/svg">
<rect x="0.5" width="60" height="60" rx="16" fill="#40A1FB" fill-opacity="0.4"/>
<path d="M42.925 19.5425C42.925 19.5425 42.925 19.555 42.925 19.5612L35.65 43.5537C35.5399 43.9434 35.3132 44.2901 35.0004 44.5473C34.6876 44.8045 34.3036 44.9598 33.9 44.9925C33.8425 44.9975 33.785 45 33.7275 45C33.3492 45.0012 32.9785 44.8941 32.6592 44.6915C32.3398 44.4888 32.085 44.199 31.925 43.8562L27.4612 34.4325C27.4172 34.3393 27.403 34.2347 27.4207 34.1331C27.4384 34.0315 27.487 33.9379 27.56 33.865L34.7175 26.7062C34.8971 26.5172 34.9958 26.2654 34.9924 26.0047C34.9891 25.7439 34.884 25.4948 34.6996 25.3104C34.5152 25.126 34.2661 25.0209 34.0053 25.0176C33.7446 25.0142 33.4928 25.1129 33.3037 25.2925L26.135 32.45C26.0621 32.523 25.9685 32.5716 25.8669 32.5893C25.7653 32.607 25.6607 32.5928 25.5675 32.5487L16.1925 28.1075C15.8243 27.9388 15.5144 27.6647 15.3022 27.3198C15.0899 26.9748 14.9847 26.5747 15 26.17C15.0204 25.754 15.1709 25.355 15.4305 25.0293C15.69 24.7036 16.0453 24.4677 16.4462 24.355L40.4387 17.08H40.4575C40.7991 16.984 41.1601 16.9807 41.5034 17.0702C41.8468 17.1598 42.1601 17.3392 42.4112 17.5898C42.6624 17.8405 42.8423 18.1534 42.9326 18.4966C43.0229 18.8397 43.0203 19.2007 42.925 19.5425Z" fill="#40A1FB"/>
</svg>
