<svg width="16" height="16" viewBox="0 0 16 16" fill="none" xmlns="http://www.w3.org/2000/svg">
<path d="M8 1.5C6.90039 1.5 6 2.40039 6 3.5C6 4.59961 6.90039 5.5 8 5.5C9.09961 5.5 10 4.59961 10 3.5C10 2.40039 9.09961 1.5 8 1.5ZM8 2.5C8.55859 2.5 9 2.94141 9 3.5C9 4.05859 8.55859 4.5 8 4.5C7.44141 4.5 7 4.05859 7 3.5C7 2.94141 7.44141 2.5 8 2.5ZM7.03125 6C6.22461 6 5.46875 6.39062 5 7.04688H4.98438V7.0625L3.6875 9.01562V9.03125C3.4707 9.34766 3.46484 9.75781 3.64062 10.0469C3.81836 10.3398 4.19141 10.5391 4.57812 10.4844L5.5 10.3594V10.6562L3.875 11.3125C3.34375 11.5254 3 12.0371 3 12.6094C3 13.3789 3.62109 14 4.39062 14H11.6094C12.3789 14 13 13.3789 13 12.6094C13 12.0371 12.6582 11.5273 12.125 11.3125L10.5 10.6562V10.3594L11.4219 10.4844C11.8086 10.5391 12.1816 10.3398 12.3594 10.0469C12.5352 9.75781 12.5293 9.34766 12.3125 9.03125V9.01562L11.0156 7.0625V7.04688H11C10.5312 6.39062 9.77539 6 8.96875 6H7.03125ZM7.03125 7H8.96875C9.45312 7 9.90625 7.23047 10.1875 7.625L11.4219 9.48438L9.26562 9.17188L8.39062 8.07812L8 7.60938L7.60938 8.07812L6.73438 9.17188L4.57812 9.48438L5.8125 7.625C6.09375 7.23047 6.54688 7 7.03125 7ZM8 9.20312L8.60938 9.95312L8.73438 10.1094L8.92188 10.125L9.5 10.2031V11.3438L11.75 12.2344C11.9004 12.2949 12 12.4473 12 12.6094C12 12.8262 11.8262 13 11.6094 13H9.46875C9.48633 12.918 9.5 12.8359 9.5 12.75C9.5 12.0605 8.93945 11.5 8.25 11.5L5.5 12.5H8.25C8.38672 12.5 8.5 12.6113 8.5 12.75C8.5 12.8887 8.38672 13 8.25 13H4.39062C4.17383 13 4 12.8262 4 12.6094C4 12.4473 4.09961 12.2949 4.25 12.2344L6.5 11.3438V10.2031L7.07812 10.125L7.26562 10.1094L7.39062 9.95312L8 9.20312Z" fill="white"/>
</svg>
