<svg width="16" height="16" viewBox="0 0 16 16" fill="none" xmlns="http://www.w3.org/2000/svg">
<g id="Moon">
<path id="Vector" d="M14.5965 8.88937C14.5324 8.8251 14.4519 8.77951 14.3639 8.75749C14.2758 8.73547 14.1833 8.73785 14.0965 8.76437C13.1431 9.0526 12.1294 9.07676 11.1633 8.8343C10.1973 8.59183 9.31513 8.09182 8.61085 7.38753C7.90657 6.68325 7.40655 5.80108 7.16408 4.83504C6.92162 3.869 6.94578 2.85527 7.23401 1.90187C7.26076 1.815 7.26332 1.72248 7.24142 1.63426C7.21951 1.54604 7.17398 1.46546 7.1097 1.40118C7.04543 1.33691 6.96484 1.29137 6.87662 1.26947C6.7884 1.24756 6.69588 1.25012 6.60901 1.27687C5.2909 1.68065 4.13372 2.48987 3.30213 3.58937C2.57489 4.55491 2.13129 5.70411 2.02117 6.90786C1.91105 8.11161 2.13878 9.32222 2.67876 10.4037C3.21875 11.4851 4.04959 12.3946 5.07796 13.0299C6.10633 13.6652 7.29148 14.0011 8.50026 14C9.91047 14.0043 11.2832 13.5459 12.4078 12.695C13.5073 11.8634 14.3165 10.7062 14.7203 9.38813C14.7467 9.30157 14.7492 9.20947 14.7274 9.12163C14.7056 9.0338 14.6603 8.95353 14.5965 8.88937ZM11.8065 11.8962C10.7475 12.6939 9.43594 13.0822 8.11335 12.9896C6.79076 12.897 5.54613 12.3297 4.60859 11.3922C3.67105 10.4548 3.1037 9.2102 3.01099 7.88762C2.91827 6.56504 3.30643 5.25347 4.10401 4.19437C4.62363 3.50816 5.29542 2.9519 6.06651 2.56937C6.02258 2.87764 6.00044 3.18862 6.00026 3.5C6.00208 5.22335 6.68748 6.87559 7.90607 8.09418C9.12466 9.31278 10.7769 9.99818 12.5003 10C12.8123 9.9999 13.1239 9.97776 13.4328 9.93375C13.0499 10.705 12.4932 11.3768 11.8065 11.8962Z" fill="white"/>
</g>
</svg>
