<svg width="20" height="20" viewBox="0 0 20 20" fill="none" xmlns="http://www.w3.org/2000/svg">
<path d="M12.1492 1.93815C12.0441 1.88694 11.9268 1.86623 11.8105 1.87839C11.6942 1.89054 11.5836 1.93507 11.4914 2.00691L6.03516 6.24987H2.5C2.16848 6.24987 1.85054 6.38157 1.61612 6.61599C1.3817 6.85041 1.25 7.16835 1.25 7.49987V12.4999C1.25 12.8314 1.3817 13.1493 1.61612 13.3838C1.85054 13.6182 2.16848 13.7499 2.5 13.7499H6.03516L11.4914 17.9928C11.5837 18.0646 11.6944 18.1091 11.8107 18.1211C11.927 18.1331 12.0444 18.1123 12.1495 18.0609C12.2545 18.0096 12.3431 17.9298 12.405 17.8306C12.467 17.7314 12.4999 17.6168 12.5 17.4999V2.49987C12.5 2.38279 12.4671 2.26805 12.4051 2.16874C12.3431 2.06942 12.2544 1.98953 12.1492 1.93815ZM11.25 16.2217L6.63359 12.6319C6.52414 12.5461 6.38905 12.4996 6.25 12.4999H2.5V7.49987H6.25C6.38905 7.5001 6.52414 7.4536 6.63359 7.36784L11.25 3.778V16.2217ZM15.625 8.12487V11.8749C15.625 12.0406 15.5592 12.1996 15.4419 12.3168C15.3247 12.434 15.1658 12.4999 15 12.4999C14.8342 12.4999 14.6753 12.434 14.5581 12.3168C14.4408 12.1996 14.375 12.0406 14.375 11.8749V8.12487C14.375 7.95911 14.4408 7.80014 14.5581 7.68293C14.6753 7.56572 14.8342 7.49987 15 7.49987C15.1658 7.49987 15.3247 7.56572 15.4419 7.68293C15.5592 7.80014 15.625 7.95911 15.625 8.12487ZM18.125 6.87487V13.1249C18.125 13.2906 18.0592 13.4496 17.9419 13.5668C17.8247 13.684 17.6658 13.7499 17.5 13.7499C17.3342 13.7499 17.1753 13.684 17.0581 13.5668C16.9408 13.4496 16.875 13.2906 16.875 13.1249V6.87487C16.875 6.70911 16.9408 6.55014 17.0581 6.43293C17.1753 6.31572 17.3342 6.24987 17.5 6.24987C17.6658 6.24987 17.8247 6.31572 17.9419 6.43293C18.0592 6.55014 18.125 6.70911 18.125 6.87487Z" fill="#F8F7F8"/>
<path fill-rule="evenodd" clip-rule="evenodd" d="M2.05806 2.47456C2.30214 2.23048 2.69786 2.23048 2.94194 2.47456L17.1086 16.6412C17.3527 16.8853 17.3527 17.281 17.1086 17.5251C16.8645 17.7692 16.4688 17.7692 16.2247 17.5251L2.05806 3.35845C1.81398 3.11437 1.81398 2.71864 2.05806 2.47456Z" fill="#F8F7F8"/>
</svg>
