<svg width="20" height="20" viewBox="0 0 20 20" fill="none" xmlns="http://www.w3.org/2000/svg">
<g id="Lead icon">
<path id="Vector" d="M10.625 7.53611V4.85407L12.8031 6.16111C12.8735 6.20337 12.9515 6.23137 13.0327 6.24349C13.1139 6.2556 13.1967 6.25161 13.2764 6.23173C13.356 6.21186 13.431 6.17648 13.497 6.12764C13.563 6.07879 13.6187 6.01742 13.6609 5.94704C13.7032 5.87666 13.7312 5.79865 13.7433 5.71745C13.7554 5.63625 13.7515 5.55346 13.7316 5.4738C13.7117 5.39415 13.6763 5.31919 13.6275 5.2532C13.5786 5.18722 13.5173 5.1315 13.4469 5.08923L11.2149 3.75017L13.4469 2.41111C13.5173 2.36884 13.5786 2.31312 13.6275 2.24713C13.6763 2.18115 13.7117 2.10619 13.7316 2.02653C13.7515 1.94688 13.7554 1.86409 13.7433 1.78289C13.7312 1.70169 13.7032 1.62367 13.6609 1.55329C13.6187 1.48291 13.563 1.42155 13.497 1.3727C13.431 1.32385 13.356 1.28848 13.2764 1.2686C13.1967 1.24873 13.1139 1.24473 13.0327 1.25685C12.9515 1.26897 12.8735 1.29696 12.8031 1.33923L10 3.02126L7.19688 1.33923C7.05474 1.25386 6.88451 1.22846 6.72364 1.2686C6.56277 1.30875 6.42444 1.41115 6.33907 1.55329C6.2537 1.69543 6.2283 1.86566 6.26844 2.02653C6.30859 2.1874 6.41099 2.32574 6.55313 2.41111L8.78516 3.75017L6.55313 5.08923C6.41099 5.1746 6.30859 5.31293 6.26844 5.4738C6.2283 5.63467 6.2537 5.8049 6.33907 5.94704C6.42444 6.08918 6.56277 6.19159 6.72364 6.23173C6.88451 6.27188 7.05474 6.24647 7.19688 6.16111L9.37501 4.85407V7.53611C7.94625 7.69585 6.63288 8.39659 5.70464 9.49442C4.77639 10.5922 4.30373 12.0038 4.38372 13.4393C4.46372 14.8747 5.09029 16.225 6.13477 17.2129C7.17925 18.2008 8.56235 18.7513 10 18.7513C11.4377 18.7513 12.8208 18.2008 13.8652 17.2129C14.9097 16.225 15.5363 14.8747 15.6163 13.4393C15.6963 12.0038 15.2236 10.5922 14.2954 9.49442C13.3671 8.39659 12.0538 7.69585 10.625 7.53611ZM10 17.5002C9.13471 17.5002 8.28885 17.2436 7.56939 16.7628C6.84992 16.2821 6.28917 15.5988 5.95803 14.7994C5.6269 14 5.54026 13.1203 5.70907 12.2716C5.87788 11.423 6.29456 10.6434 6.90641 10.0316C7.51827 9.41972 8.29782 9.00304 9.14649 8.83423C9.99515 8.66542 10.8748 8.75206 11.6742 9.0832C12.4737 9.41433 13.157 9.97508 13.6377 10.6945C14.1184 11.414 14.375 12.2599 14.375 13.1252C14.3738 14.2851 13.9124 15.3972 13.0922 16.2174C12.272 17.0376 11.1599 17.4989 10 17.5002Z" fill="#888888"/>
</g>
</svg>
