<svg width="56" height="56" viewBox="0 0 56 56" fill="none" xmlns="http://www.w3.org/2000/svg">
<g clip-path="url(#clip0_3140_4159)">
<rect width="56" height="56" rx="28" fill="#131314" fill-opacity="0.45"/>
<path d="M37.5625 19.25V36.75C37.5625 37.1976 37.3847 37.6268 37.0682 37.9432C36.7518 38.2597 36.3226 38.4375 35.875 38.4375H31.5C31.0524 38.4375 30.6232 38.2597 30.3068 37.9432C29.9903 37.6268 29.8125 37.1976 29.8125 36.75V19.25C29.8125 18.8024 29.9903 18.3732 30.3068 18.0568C30.6232 17.7403 31.0524 17.5625 31.5 17.5625H35.875C36.3226 17.5625 36.7518 17.7403 37.0682 18.0568C37.3847 18.3732 37.5625 18.8024 37.5625 19.25ZM20.125 17.5625H24.5C24.9476 17.5625 25.3768 17.7403 25.6932 18.0568C26.0097 18.3732 26.1875 18.8024 26.1875 19.25V36.75C26.1875 37.1976 26.0097 37.6268 25.6932 37.9432C25.3768 38.2597 24.9476 38.4375 24.5 38.4375H20.125C19.6774 38.4375 19.2482 38.2597 18.9318 37.9432C18.6153 37.6268 18.4375 37.1976 18.4375 36.75V19.25C18.4375 18.8024 18.6153 18.3732 18.9318 18.0568C19.2482 17.7403 19.6774 17.5625 20.125 17.5625Z" fill="white" stroke="white" stroke-width="0.125"/>
</g>
<rect x="0.5" y="0.5" width="55" height="55" rx="27.5" stroke="white" stroke-opacity="0.1"/>
<defs>
<clipPath id="clip0_3140_4159">
<rect width="56" height="56" rx="28" fill="white"/>
</clipPath>
</defs>
</svg>
