<svg width="16" height="16" viewBox="0 0 16 16" fill="none" xmlns="http://www.w3.org/2000/svg">
<path d="M15 6.29249C15.0004 6.16112 14.9747 6.03097 14.9244 5.90962C14.8741 5.78827 14.8001 5.67813 14.7069 5.58561L10.4144 1.29249C10.3215 1.1996 10.2112 1.12592 10.0899 1.07565C9.96856 1.02539 9.83851 0.999512 9.70717 0.999512C9.57582 0.999512 9.44577 1.02539 9.32443 1.07565C9.20309 1.12592 9.09284 1.1996 8.99998 1.29249L7.2231 3.06936L3.5981 4.42999C3.43336 4.49143 3.28764 4.59507 3.17554 4.73053C3.06344 4.86599 2.98889 5.02853 2.95935 5.20186L1.50685 13.9175C1.49487 13.9891 1.49864 14.0625 1.5179 14.1326C1.53716 14.2026 1.57145 14.2676 1.61838 14.323C1.66532 14.3785 1.72377 14.423 1.78967 14.4536C1.85557 14.4842 1.92734 14.5 1.99998 14.5C2.02762 14.4999 2.0552 14.4976 2.08248 14.4931L10.7975 13.0406C10.9706 13.0117 11.1331 12.9378 11.2686 12.8262C11.4041 12.7146 11.5078 12.5694 11.5694 12.405L12.93 8.77999L14.7069 6.99999C14.8002 6.90737 14.8741 6.79713 14.9245 6.67567C14.9748 6.55421 15.0004 6.42396 15 6.29249ZM10.6331 12.0544L3.45748 13.25L6.4181 10.2894C6.78788 10.4892 7.21724 10.5493 7.62767 10.4586C8.03811 10.3679 8.40219 10.1326 8.65336 9.79552C8.90452 9.45849 9.02599 9.04231 8.99555 8.62309C8.96512 8.20386 8.7848 7.8096 8.48759 7.51238C8.19037 7.21516 7.7961 7.03485 7.37688 7.00441C6.95765 6.97397 6.54147 7.09544 6.20444 7.34661C5.86741 7.59777 5.63203 7.96186 5.54136 8.37229C5.45068 8.78272 5.51076 9.21208 5.7106 9.58186L2.74998 12.5437L3.9456 5.36624L7.37498 4.08061L11.9187 8.62499L10.6331 12.0544ZM6.49998 8.74999C6.49998 8.60165 6.54396 8.45665 6.62638 8.33331C6.70879 8.20997 6.82592 8.11384 6.96297 8.05708C7.10001 8.00031 7.25081 7.98546 7.3963 8.0144C7.54178 8.04334 7.67542 8.11477 7.78031 8.21966C7.8852 8.32455 7.95663 8.45818 7.98557 8.60367C8.01451 8.74915 7.99965 8.89995 7.94289 9.037C7.88612 9.17404 7.78999 9.29118 7.66666 9.37359C7.54332 9.456 7.39831 9.49999 7.24998 9.49999C7.05107 9.49999 6.8603 9.42097 6.71965 9.28032C6.579 9.13966 6.49998 8.9489 6.49998 8.74999ZM12.5 7.79249L8.20685 3.49999L9.70685 1.99999L14 6.29249L12.5 7.79249Z" fill="white"/>
</svg>
