<svg width="16" height="16" viewBox="0 0 16 16" fill="none" xmlns="http://www.w3.org/2000/svg">
<path d="M15 6.29249C15.0004 6.16112 14.9747 6.03097 14.9244 5.90962C14.8741 5.78827 14.8001 5.67813 14.7069 5.58561L10.4144 1.29249C10.3215 1.1996 10.2113 1.12592 10.0899 1.07565C9.96858 1.02539 9.83853 0.999512 9.70719 0.999512C9.57585 0.999512 9.44579 1.02539 9.32445 1.07565C9.20311 1.12592 9.09286 1.1996 9 1.29249L7.22312 3.06936L3.59812 4.42999C3.43338 4.49143 3.28766 4.59507 3.17556 4.73053C3.06346 4.86599 2.98891 5.02853 2.95937 5.20186L1.50687 13.9175C1.49489 13.9891 1.49866 14.0625 1.51792 14.1326C1.53718 14.2026 1.57147 14.2676 1.61841 14.323C1.66534 14.3785 1.72379 14.423 1.78969 14.4536C1.85559 14.4842 1.92736 14.5 2 14.5C2.02764 14.4999 2.05522 14.4976 2.0825 14.4931L10.7975 13.0406C10.9706 13.0117 11.1331 12.9378 11.2686 12.8262C11.4041 12.7146 11.5078 12.5694 11.5694 12.405L12.93 8.77999L14.7069 6.99999C14.8002 6.90737 14.8742 6.79713 14.9245 6.67567C14.9748 6.55421 15.0005 6.42396 15 6.29249ZM10.6331 12.0544L3.4575 13.25L6.41812 10.2894C6.7879 10.4892 7.21726 10.5493 7.6277 10.4586C8.03813 10.3679 8.40221 10.1326 8.65338 9.79552C8.90454 9.45849 9.02601 9.04231 8.99557 8.62309C8.96514 8.20386 8.78482 7.8096 8.48761 7.51238C8.19039 7.21516 7.79612 7.03485 7.3769 7.00441C6.95767 6.97397 6.54149 7.09544 6.20446 7.34661C5.86743 7.59777 5.63205 7.96186 5.54138 8.37229C5.4507 8.78272 5.51078 9.21208 5.71062 9.58186L2.75 12.5437L3.94562 5.36624L7.375 4.08061L11.9187 8.62499L10.6331 12.0544ZM6.5 8.74999C6.5 8.60165 6.54399 8.45665 6.6264 8.33331C6.70881 8.20997 6.82594 8.11384 6.96299 8.05708C7.10003 8.00031 7.25083 7.98546 7.39632 8.0144C7.5418 8.04334 7.67544 8.11477 7.78033 8.21966C7.88522 8.32455 7.95665 8.45818 7.98559 8.60367C8.01453 8.74915 7.99967 8.89995 7.94291 9.037C7.88614 9.17404 7.79001 9.29118 7.66668 9.37359C7.54334 9.456 7.39834 9.49999 7.25 9.49999C7.05109 9.49999 6.86032 9.42097 6.71967 9.28032C6.57902 9.13966 6.5 8.9489 6.5 8.74999ZM12.5 7.79249L8.20687 3.49999L9.70687 1.99999L14 6.29249L12.5 7.79249Z" fill="white"/>
</svg>
