<svg width="56" height="56" viewBox="0 0 56 56" fill="none" xmlns="http://www.w3.org/2000/svg">
<g clip-path="url(#clip0_2870_21508)">
<rect width="56" height="56" rx="28" fill="#131314" fill-opacity="0.45"/>
<path d="M39.3864 29.4242L39.3861 29.4244L23.6274 39.0647L23.6274 39.0647C23.3712 39.2216 23.0777 39.3073 22.7774 39.3128C22.477 39.3184 22.1806 39.2437 21.9188 39.0964L21.9186 39.0963C21.6594 38.9513 21.4434 38.7399 21.2929 38.4839C21.1425 38.2278 21.0629 37.9362 21.0625 37.6392L21.0625 18.3609C21.0629 18.0639 21.1425 17.7723 21.2929 17.5163C21.4434 17.2602 21.6594 17.0488 21.9186 16.9038L21.9188 16.9037C22.1806 16.7565 22.477 16.6817 22.7774 16.6873C23.0777 16.6929 23.3712 16.7785 23.6274 16.9354L23.6274 16.9354L39.3861 26.5757L39.3864 26.5759C39.6315 26.724 39.834 26.9329 39.9744 27.1825C40.1148 27.432 40.1882 27.7136 40.1875 27.9999V28.0002C40.1882 28.2865 40.1148 28.5681 39.9744 28.8177C39.834 29.0672 39.6315 29.2762 39.3864 29.4242ZM39.4188 29.4777L23.66 39.118C23.3943 39.2807 23.09 39.3695 22.7785 39.3753C22.467 39.3811 22.1597 39.3036 21.8881 39.1508C21.6192 39.0005 21.3951 38.7812 21.2391 38.5155C21.083 38.2498 21.0004 37.9474 21 37.6393L39.4188 29.4777Z" fill="white" stroke="white" stroke-width="0.125"/>
</g>
<rect x="0.5" y="0.5" width="55" height="55" rx="27.5" stroke="white" stroke-opacity="0.1"/>
<defs>
<clipPath id="clip0_2870_21508">
<rect width="56" height="56" rx="28" fill="white"/>
</clipPath>
</defs>
</svg>
