<svg width="20" height="20" viewBox="0 0 20 20" fill="none" xmlns="http://www.w3.org/2000/svg">
<path d="M19.8281 10.1716C19.9229 4.74346 15.5993 0.266304 10.1712 0.171556C4.74312 0.0768083 0.265965 4.40034 0.171217 9.82844C0.0764695 15.2565 4.40001 19.7337 9.8281 19.8284C15.2562 19.9232 19.7334 15.5997 19.8281 10.1716Z" fill="white" fill-opacity="0.2"/>
<path d="M4.07543 6.90841C4.02955 6.86275 3.99314 6.80846 3.9683 6.74868C3.94345 6.6889 3.93066 6.6248 3.93066 6.56007C3.93066 6.49533 3.94345 6.43123 3.9683 6.37145C3.99314 6.31167 4.02955 6.25739 4.07543 6.21172C4.12274 6.16564 5.2286 5.08496 7.37276 5.08496C8.50443 5.08496 9.35349 5.6508 10.103 6.15028C10.7973 6.61352 11.4534 7.05095 12.2877 7.05095C12.9614 7.061 13.6284 6.9175 14.2384 6.63133C14.4749 6.52221 14.6948 6.3801 14.8914 6.20926C14.9373 6.1638 14.9916 6.1278 15.0513 6.10334C15.1111 6.07887 15.175 6.06641 15.2396 6.06667C15.3041 6.06693 15.368 6.0799 15.4276 6.10484C15.4871 6.12978 15.5411 6.1662 15.5866 6.21203C15.6321 6.25785 15.6681 6.31218 15.6925 6.37192C15.717 6.43166 15.7294 6.49563 15.7292 6.56018C15.7289 6.62473 15.716 6.6886 15.691 6.74814C15.6661 6.80768 15.6297 6.86172 15.5838 6.90719C15.5378 6.95326 14.4319 8.03394 12.2877 8.03394C11.1561 8.03394 10.307 7.46811 9.55746 6.96862C8.86323 6.50539 8.20708 6.06796 7.37276 6.06796C6.69912 6.0579 6.03204 6.2014 5.42213 6.48757C5.18559 6.5967 4.96571 6.7388 4.76905 6.90964C4.67678 7.00121 4.55199 7.05249 4.42199 7.05226C4.29199 7.05203 4.16738 7.00031 4.07543 6.90841ZM14.8914 9.64974C14.6948 9.82058 14.4749 9.96269 14.2384 10.0718C13.6284 10.358 12.9614 10.5015 12.2877 10.4914C11.4534 10.4914 10.7973 10.054 10.103 9.59076C9.35349 9.09128 8.50443 8.52544 7.37276 8.52544C5.2286 8.52544 4.12274 9.60612 4.07666 9.6522C3.98411 9.74401 3.93182 9.86884 3.9313 9.99921C3.93079 10.1296 3.98208 10.2548 4.07389 10.3474C4.16571 10.4399 4.29053 10.4922 4.4209 10.4927C4.55127 10.4932 4.6765 10.4419 4.76905 10.3501C4.96571 10.1793 5.18559 10.0372 5.42213 9.92805C6.03204 9.64188 6.69912 9.49838 7.37276 9.50843C8.20708 9.50843 8.86323 9.94587 9.55746 10.4091C10.307 10.9086 11.1548 11.4744 12.2877 11.4744C14.4319 11.4744 15.5378 10.3937 15.5838 10.3477C15.6297 10.3022 15.6661 10.2482 15.691 10.1886C15.716 10.1291 15.7289 10.0652 15.7292 10.0007C15.7294 9.93611 15.717 9.87214 15.6925 9.8124C15.6681 9.75266 15.6321 9.69833 15.5866 9.6525C15.5411 9.60668 15.4871 9.57025 15.4276 9.54531C15.368 9.52037 15.3041 9.50741 15.2396 9.50715C15.175 9.50689 15.1111 9.51935 15.0513 9.54382C14.9916 9.56828 14.9373 9.60428 14.8914 9.64974ZM14.8914 13.0902C14.6948 13.2611 14.4749 13.4032 14.2384 13.5123C13.6284 13.7985 12.9614 13.942 12.2877 13.9319C11.4534 13.9319 10.7973 13.4945 10.103 13.0312C9.35349 12.5318 8.50443 11.9659 7.37276 11.9659C5.2286 11.9659 4.12274 13.0466 4.07666 13.0927C3.98411 13.1845 3.93182 13.3093 3.9313 13.4397C3.93079 13.5701 3.98208 13.6953 4.07389 13.7878C4.16571 13.8804 4.29053 13.9327 4.4209 13.9332C4.55127 13.9337 4.6765 13.8824 4.76905 13.7906C4.96571 13.6198 5.18559 13.4777 5.42213 13.3685C6.03204 13.0824 6.69912 12.9389 7.37276 12.9489C8.20708 12.9489 8.86323 13.3863 9.55746 13.8496C10.307 14.3491 11.1548 14.9149 12.2877 14.9149C14.4319 14.9149 15.5378 13.8342 15.5838 13.7881C15.6764 13.6963 15.7287 13.5715 15.7292 13.4411C15.7297 13.3108 15.6784 13.1855 15.5866 13.093C15.4948 13.0004 15.37 12.9481 15.2396 12.9476C15.1092 12.9471 14.984 12.9984 14.8914 13.0902Z" fill="white"/>
</svg>
