<svg width="25" height="24" viewBox="0 0 25 24" fill="none" xmlns="http://www.w3.org/2000/svg">
<g id="Repeat">
<path id="Vector" d="M2.74961 11.9999C2.7516 10.2103 3.46339 8.49459 4.72884 7.22915C5.99428 5.96371 7.71001 5.25191 9.49961 5.24993H19.6893L18.719 4.28055C18.5783 4.13982 18.4992 3.94895 18.4992 3.74993C18.4992 3.55091 18.5783 3.36003 18.719 3.2193C18.8597 3.07857 19.0506 2.99951 19.2496 2.99951C19.4486 2.99951 19.6395 3.07857 19.7802 3.2193L22.0302 5.4693C22.1 5.53896 22.1553 5.62168 22.193 5.71272C22.2308 5.80377 22.2502 5.90137 22.2502 5.99993C22.2502 6.09849 22.2308 6.19609 22.193 6.28713C22.1553 6.37818 22.1 6.4609 22.0302 6.53055L19.7802 8.78055C19.6395 8.92128 19.4486 9.00035 19.2496 9.00035C19.0506 9.00035 18.8597 8.92128 18.719 8.78055C18.5783 8.63982 18.4992 8.44895 18.4992 8.24993C18.4992 8.05091 18.5783 7.86003 18.719 7.7193L19.6893 6.74993H9.49961C8.10768 6.75142 6.77319 7.30502 5.78895 8.28926C4.8047 9.27351 4.2511 10.608 4.24961 11.9999C4.24961 12.1988 4.1706 12.3896 4.02994 12.5303C3.88929 12.6709 3.69853 12.7499 3.49961 12.7499C3.3007 12.7499 3.10994 12.6709 2.96928 12.5303C2.82863 12.3896 2.74961 12.1988 2.74961 11.9999ZM21.4996 11.2499C21.3007 11.2499 21.1099 11.3289 20.9693 11.4696C20.8286 11.6103 20.7496 11.801 20.7496 11.9999C20.7481 13.3919 20.1945 14.7264 19.2103 15.7106C18.226 16.6948 16.8915 17.2484 15.4996 17.2499H5.30993L6.28024 16.2806C6.34992 16.2109 6.4052 16.1281 6.44291 16.0371C6.48062 15.9461 6.50003 15.8485 6.50003 15.7499C6.50003 15.6514 6.48062 15.5538 6.44291 15.4628C6.4052 15.3717 6.34992 15.289 6.28024 15.2193C6.21056 15.1496 6.12783 15.0943 6.03679 15.0566C5.94574 15.0189 5.84816 14.9995 5.74961 14.9995C5.65107 14.9995 5.55349 15.0189 5.46244 15.0566C5.3714 15.0943 5.28867 15.1496 5.21899 15.2193L2.96899 17.4693C2.89926 17.539 2.84394 17.6217 2.80619 17.7127C2.76845 17.8038 2.74902 17.9014 2.74902 17.9999C2.74902 18.0985 2.76845 18.1961 2.80619 18.2871C2.84394 18.3782 2.89926 18.4609 2.96899 18.5306L5.21899 20.7806C5.28867 20.8502 5.3714 20.9055 5.46244 20.9432C5.55349 20.9809 5.65107 21.0003 5.74961 21.0003C5.84816 21.0003 5.94574 20.9809 6.03679 20.9432C6.12783 20.9055 6.21056 20.8502 6.28024 20.7806C6.34992 20.7109 6.4052 20.6281 6.44291 20.5371C6.48062 20.4461 6.50003 20.3485 6.50003 20.2499C6.50003 20.1514 6.48062 20.0538 6.44291 19.9628C6.4052 19.8717 6.34992 19.789 6.28024 19.7193L5.30993 18.7499H15.4996C17.2892 18.7479 19.005 18.0361 20.2704 16.7707C21.5358 15.5053 22.2476 13.7895 22.2496 11.9999C22.2496 11.801 22.1706 11.6103 22.0299 11.4696C21.8893 11.3289 21.6985 11.2499 21.4996 11.2499Z" fill="#F8F7F8"/>
</g>
</svg>
