<svg width="114" height="114" viewBox="0 0 114 114" fill="none" xmlns="http://www.w3.org/2000/svg">
<circle cx="41" cy="43" r="9" fill="#F8F7F8"/>
<circle cx="71" cy="43" r="9" fill="#F8F7F8"/>
<circle cx="56" cy="56" r="50.5" stroke="#F8F7F8" stroke-width="11"/>
<path d="M37 72L77 64" stroke="#F8F7F8" stroke-width="8" stroke-linecap="square"/>
<path d="M105.553 92.1976L105.537 92.1825L105.521 92.1679L100.542 87.5987C100.258 87.3195 99.9217 87.0994 99.552 86.9515C99.1749 86.8006 98.7712 86.7279 98.3652 86.7377C97.9592 86.7475 97.5595 86.8396 97.1902 87.0085C96.8208 87.1773 96.4896 87.4194 96.2166 87.72L96.2154 87.7213C95.1127 88.9401 95.2419 90.7838 96.3559 91.8978C96.668 92.2099 96.9799 92.631 97.2251 92.9987C97.3446 93.1778 97.4421 93.3351 97.5093 93.4466C97.5427 93.5022 97.5684 93.5461 97.5852 93.5751L97.6035 93.607L97.6074 93.6139L97.6076 93.6142L97.6077 93.6144L97.6078 93.6146L97.6079 93.6148L97.6079 93.6149L97.6635 93.7144L95.01 90.8891L94.9993 90.8776L94.9882 90.8666C93.8766 89.755 92.0287 89.6178 90.8098 90.7279C90.5092 91.001 90.2672 91.3323 90.0985 91.7017C89.9296 92.0713 89.8376 92.4715 89.828 92.8778C89.8185 93.2841 89.8916 93.6881 90.0429 94.0653C90.0907 94.1843 90.1459 94.2999 90.2082 94.4114C89.1354 93.8732 87.7867 93.9744 86.8275 94.8479C86.5269 95.121 86.2849 95.4523 86.1162 95.8217C85.9473 96.1914 85.8553 96.5915 85.8457 96.9978C85.8362 97.4041 85.9093 97.8081 86.0606 98.1853C86.2085 98.5538 86.428 98.8892 86.7063 99.1722L89.7399 102.524C88.288 102.247 86.7465 103.04 86.2726 104.544C86.1494 104.93 86.1056 105.337 86.144 105.741C86.1825 106.145 86.3027 106.538 86.4973 106.894C86.675 107.22 86.9113 107.509 87.194 107.748C87.9392 108.603 89.2549 109.789 90.9225 110.754C92.6295 111.741 94.7798 112.536 97.1124 112.427C98.6378 112.426 100.148 112.12 101.554 111.528C102.967 110.932 104.246 110.059 105.316 108.961C109.693 104.485 110.062 96.7069 105.553 92.1976Z" fill="white" stroke="#131314" stroke-width="2"/>
</svg>
