<svg width="36" height="36" viewBox="0 0 36 36" fill="none" xmlns="http://www.w3.org/2000/svg">
<rect x="0.5" y="0.5" width="35" height="35" rx="17.5" fill="#131314"/>
<rect x="0.5" y="0.5" width="35" height="35" rx="17.5" stroke="#454545"/>
<path d="M25.1479 24.3519L21.6273 20.8321C22.6477 19.6071 23.1566 18.0358 23.048 16.4451C22.9394 14.8545 22.2217 13.3669 21.0443 12.2919C19.8668 11.2169 18.3203 10.6373 16.7264 10.6735C15.1324 10.7097 13.6138 11.359 12.4864 12.4864C11.359 13.6138 10.7097 15.1324 10.6735 16.7264C10.6373 18.3203 11.2169 19.8668 12.2919 21.0443C13.3669 22.2217 14.8545 22.9394 16.4451 23.048C18.0358 23.1566 19.6071 22.6477 20.8321 21.6273L24.3519 25.1479C24.4042 25.2001 24.4663 25.2416 24.5345 25.2699C24.6028 25.2982 24.676 25.3127 24.7499 25.3127C24.8238 25.3127 24.897 25.2982 24.9653 25.2699C25.0336 25.2416 25.0956 25.2001 25.1479 25.1479C25.2001 25.0956 25.2416 25.0336 25.2699 24.9653C25.2982 24.897 25.3127 24.8238 25.3127 24.7499C25.3127 24.676 25.2982 24.6028 25.2699 24.5345C25.2416 24.4663 25.2001 24.4042 25.1479 24.3519ZM11.8124 16.8749C11.8124 15.8736 12.1093 14.8949 12.6656 14.0623C13.2219 13.2298 14.0125 12.5809 14.9376 12.1978C15.8626 11.8146 16.8805 11.7144 17.8626 11.9097C18.8446 12.105 19.7466 12.5872 20.4546 13.2952C21.1626 14.0032 21.6448 14.9052 21.8401 15.8873C22.0355 16.8693 21.9352 17.8872 21.5521 18.8123C21.1689 19.7373 20.52 20.528 19.6875 21.0842C18.855 21.6405 17.8762 21.9374 16.8749 21.9374C15.5327 21.9359 14.2459 21.4021 13.2968 20.453C12.3478 19.5039 11.8139 18.2171 11.8124 16.8749Z" fill="white"/>
</svg>
