<svg width="20" height="20" viewBox="0 0 20 20" fill="none" xmlns="http://www.w3.org/2000/svg">
<path d="M19.8281 10.1716C19.9229 4.74346 15.5993 0.266304 10.1712 0.171556C4.74312 0.0768083 0.265965 4.40034 0.171217 9.82844C0.0764695 15.2565 4.40001 19.7337 9.8281 19.8284C15.2562 19.9232 19.7334 15.5997 19.8281 10.1716Z" fill="white" fill-opacity="0.2"/>
<path d="M16.3138 10.8742C16.2508 10.811 16.1717 10.7662 16.0851 10.7445C15.9985 10.7229 15.9077 10.7252 15.8223 10.7513C14.8852 11.0346 13.8887 11.0584 12.9391 10.8201C11.9894 10.5817 11.1223 10.0902 10.43 9.39789C9.73766 8.70558 9.24615 7.83842 9.0078 6.8888C8.76946 5.93919 8.79322 4.9427 9.07654 4.00552C9.10283 3.92012 9.10535 3.82917 9.08382 3.74245C9.06229 3.65573 9.01753 3.57652 8.95435 3.51334C8.89116 3.45016 8.81195 3.4054 8.72523 3.38387C8.63851 3.36234 8.54756 3.36485 8.46217 3.39115C7.16647 3.78806 6.02897 4.58352 5.21153 5.66432C4.49665 6.61344 4.0606 7.74309 3.95235 8.92637C3.84411 10.1097 4.06796 11.2997 4.59876 12.3627C5.12956 13.4258 5.94628 14.3198 6.95716 14.9443C7.96804 15.5688 9.13304 15.899 10.3213 15.8979C11.7075 15.9022 13.0568 15.4515 14.1623 14.6151C15.2431 13.7977 16.0386 12.6602 16.4355 11.3645C16.4615 11.2794 16.4639 11.1888 16.4425 11.1025C16.421 11.0162 16.3766 10.9373 16.3138 10.8742ZM13.5713 13.8299C12.5303 14.614 11.241 14.9957 9.94093 14.9047C8.64083 14.8136 7.41737 14.256 6.49577 13.3345C5.57418 12.413 5.01648 11.1896 4.92534 9.88947C4.8342 8.58938 5.21575 7.30012 5.99977 6.25903C6.51056 5.58449 7.17092 5.03769 7.92889 4.66167C7.88571 4.96469 7.86395 5.27038 7.86377 5.57647C7.86556 7.27051 8.53931 8.89465 9.73718 10.0925C10.935 11.2904 12.5592 11.9641 14.2532 11.9659C14.5599 11.9658 14.8662 11.9441 15.1699 11.9008C14.7935 12.6589 14.2463 13.3193 13.5713 13.8299Z" fill="white"/>
</svg>
