<svg width="52" height="52" viewBox="0 0 52 52" fill="none" xmlns="http://www.w3.org/2000/svg">
<g id="SmileyPlus" filter="url(#filter0_d_2870_1283)">
<g id="Vector">
<path fill-rule="evenodd" clip-rule="evenodd" d="M29.9693 16.7197C29.8287 16.8603 29.7497 17.0511 29.7497 17.25C29.7497 17.4489 29.8287 17.6397 29.9693 17.7803C30.11 17.921 30.3007 18 30.4997 18H31.9997V19.5C31.9997 19.6989 32.0787 19.8897 32.2193 20.0303C32.36 20.171 32.5507 20.25 32.7497 20.25C32.9486 20.25 33.1393 20.171 33.28 20.0303C33.4206 19.8897 33.4997 19.6989 33.4997 19.5V18H34.9997C35.1986 18 35.3893 17.921 35.53 17.7803C35.6706 17.6397 35.7497 17.4489 35.7497 17.25C35.7497 17.0511 35.6706 16.8603 35.53 16.7197C35.3893 16.579 35.1986 16.5 34.9997 16.5H33.4997V15C33.4997 14.8011 33.4206 14.6103 33.28 14.4697C33.1393 14.329 32.9486 14.25 32.7497 14.25C32.5507 14.25 32.36 14.329 32.2193 14.4697C32.0787 14.6103 31.9997 14.8011 31.9997 15V16.5H30.4997C30.3007 16.5 30.11 16.579 29.9693 16.7197ZM34.7194 28.353C35.6438 26.506 35.9573 24.413 35.6147 22.3763C35.5992 22.2784 35.5645 22.1846 35.5126 22.1002C35.4607 22.0158 35.3926 21.9425 35.3122 21.8846C35.2318 21.8267 35.1407 21.7853 35.0443 21.7628C34.9478 21.7403 34.8478 21.7371 34.7501 21.7534C34.6524 21.7698 34.5588 21.8053 34.4749 21.858C34.391 21.9107 34.3184 21.9795 34.2612 22.0604C34.2041 22.1414 34.1635 22.2328 34.1419 22.3295C34.1203 22.4262 34.118 22.5262 34.1353 22.6238C34.2114 23.0786 34.2497 23.5389 34.2497 24C34.2514 26.0196 33.5092 27.969 32.1647 29.4759L31.0547 30.5156C29.6103 31.6414 27.8309 32.2519 25.9997 32.25C24.1684 32.2519 22.3891 31.6414 20.9447 30.5156L19.8347 29.4759C18.4901 27.969 17.7479 26.0196 17.7497 24C17.7506 22.8004 18.013 21.6154 18.5184 20.5275C19.0239 19.4395 19.7604 18.4748 20.6766 17.7005C21.5929 16.9261 22.6668 16.3607 23.8238 16.0436C24.9808 15.7266 26.1929 15.6654 27.3759 15.8644C27.5712 15.8952 27.7708 15.8477 27.9312 15.7321C28.0916 15.6165 28.1999 15.4423 28.2325 15.2473C28.2651 15.0523 28.2195 14.8523 28.1054 14.6908C27.9913 14.5294 27.8181 14.4194 27.6234 14.385C25.5866 14.0424 23.4937 14.3559 21.6467 15.2803C19.7997 16.2047 18.2943 17.6922 17.3478 19.5279C16.4014 21.3637 16.0628 23.4528 16.381 25.4935C16.6992 27.5342 17.6577 29.421 19.1182 30.8815C20.5786 32.342 22.4654 33.3005 24.5062 33.6187C26.5469 33.9369 28.636 33.5983 30.4717 32.6518C32.3075 31.7054 33.795 30.2 34.7194 28.353Z" fill="white"/>
<path d="M21.6898 21.5C21.5662 21.685 21.5002 21.9025 21.5002 22.125C21.5002 22.4234 21.6187 22.7095 21.8297 22.9205C22.0407 23.1315 22.3268 23.25 22.6252 23.25C22.8477 23.25 23.0652 23.184 23.2502 23.0604C23.4352 22.9368 23.5794 22.7611 23.6646 22.5555C23.7497 22.35 23.772 22.1238 23.7286 21.9055C23.6852 21.6873 23.578 21.4868 23.4207 21.3295C23.2633 21.1722 23.0629 21.065 22.8447 21.0216C22.6264 20.9782 22.4002 21.0005 22.1947 21.0856C21.9891 21.1708 21.8134 21.315 21.6898 21.5Z" fill="white"/>
<path d="M30.3106 22.75C30.4342 22.565 30.5002 22.3475 30.5002 22.125C30.5002 21.8266 30.3817 21.5405 30.1707 21.3295C29.9597 21.1185 29.6736 21 29.3752 21C29.1527 21 28.9352 21.066 28.7502 21.1896C28.5652 21.3132 28.421 21.4889 28.3358 21.6945C28.2507 21.9 28.2284 22.1262 28.2718 22.3445C28.3152 22.5627 28.4224 22.7632 28.5797 22.9205C28.737 23.0778 28.9375 23.185 29.1557 23.2284C29.3739 23.2718 29.6001 23.2495 29.8057 23.1644C30.0113 23.0792 30.187 22.935 30.3106 22.75Z" fill="white"/>
<path d="M26.0002 29.25C27.8311 29.25 29.4352 28.2928 30.3999 26.625C30.4993 26.4527 30.5263 26.2479 30.4748 26.0558C30.4232 25.8636 30.2975 25.6998 30.1252 25.6003C29.9529 25.5009 29.7481 25.4739 29.556 25.5254C29.3638 25.577 29.2 25.7027 29.1005 25.875C28.4011 27.0844 27.3005 27.75 26.0002 27.75C24.6999 27.75 23.5993 27.0853 22.8989 25.875C22.8521 25.7854 22.7875 25.7062 22.7092 25.6421C22.6309 25.5781 22.5405 25.5305 22.4433 25.5023C22.3462 25.4742 22.2444 25.4659 22.1439 25.4781C22.0435 25.4903 21.9466 25.5227 21.859 25.5733C21.7715 25.6239 21.695 25.6918 21.6344 25.7727C21.5737 25.8536 21.53 25.946 21.5059 26.0442C21.4818 26.1425 21.4779 26.2446 21.4943 26.3444C21.5107 26.4442 21.5472 26.5396 21.6014 26.625C22.5661 28.2938 24.1693 29.25 26.0002 29.25Z" fill="white"/>
</g>
</g>
<defs>
<filter id="filter0_d_2870_1283" x="-2" y="-2" width="56" height="56" filterUnits="userSpaceOnUse" color-interpolation-filters="sRGB">
<feFlood flood-opacity="0" result="BackgroundImageFix"/>
<feColorMatrix in="SourceAlpha" type="matrix" values="0 0 0 0 0 0 0 0 0 0 0 0 0 0 0 0 0 0 127 0" result="hardAlpha"/>
<feOffset dy="2"/>
<feGaussianBlur stdDeviation="8"/>
<feColorMatrix type="matrix" values="0 0 0 0 0 0 0 0 0 0 0 0 0 0 0 0 0 0 0.12 0"/>
<feBlend mode="normal" in2="BackgroundImageFix" result="effect1_dropShadow_2870_1283"/>
<feBlend mode="normal" in="SourceGraphic" in2="effect1_dropShadow_2870_1283" result="shape"/>
</filter>
</defs>
</svg>
