<svg width="20" height="20" viewBox="0 0 20 20" fill="none" xmlns="http://www.w3.org/2000/svg">
<path fill-rule="evenodd" clip-rule="evenodd" d="M13.7047 2.46968C13.564 2.61033 13.485 2.8011 13.485 3.00001C13.485 3.19892 13.564 3.38969 13.7047 3.53034C13.8453 3.67099 14.0361 3.75001 14.235 3.75001H15.735V5.25001C15.735 5.44892 15.814 5.63969 15.9547 5.78034C16.0953 5.92099 16.2861 6.00001 16.485 6.00001C16.6839 6.00001 16.8747 5.92099 17.0153 5.78034C17.156 5.63969 17.235 5.44892 17.235 5.25001V3.75001H18.735C18.9339 3.75001 19.1247 3.67099 19.2653 3.53034C19.406 3.38969 19.485 3.19892 19.485 3.00001C19.485 2.8011 19.406 2.61033 19.2653 2.46968C19.1247 2.32903 18.9339 2.25001 18.735 2.25001H17.235V0.750011C17.235 0.551098 17.156 0.360333 17.0153 0.219681C16.8747 0.0790283 16.6839 1.06564e-05 16.485 1.06564e-05C16.2861 1.06564e-05 16.0953 0.0790283 15.9547 0.219681C15.814 0.360333 15.735 0.551098 15.735 0.750011V2.25001H14.235C14.0361 2.25001 13.8453 2.32903 13.7047 2.46968ZM18.4547 14.103C19.3791 12.256 19.6927 10.163 19.35 8.12626C19.3346 8.0284 19.2999 7.93456 19.248 7.85017C19.1961 7.76579 19.1279 7.69252 19.0476 7.63461C18.9672 7.5767 18.8761 7.53529 18.7796 7.51278C18.6831 7.49026 18.5831 7.48709 18.4854 7.50343C18.3877 7.51978 18.2942 7.55533 18.2103 7.60802C18.1264 7.66072 18.0538 7.72951 17.9966 7.81044C17.9394 7.89136 17.8989 7.98281 17.8773 8.0795C17.8556 8.17619 17.8534 8.2762 17.8706 8.37376C17.9468 8.82855 17.985 9.28889 17.985 9.75001C17.9868 11.7696 17.2445 13.719 15.9 15.2259L14.79 16.2656C13.3456 17.3914 11.5663 18.0019 9.73501 18C7.90373 18.0019 6.12441 17.3914 4.68001 16.2656L3.57001 15.2259C2.22549 13.719 1.48323 11.7696 1.48501 9.75001C1.48596 8.55039 1.74831 7.36538 2.2538 6.27746C2.75928 5.18954 3.49577 4.22483 4.412 3.45048C5.32823 2.67613 6.40219 2.11073 7.55915 1.79364C8.7161 1.47655 9.92826 1.41538 11.1113 1.61439C11.3066 1.6452 11.5061 1.59766 11.6665 1.48209C11.827 1.36653 11.9353 1.1923 11.9679 0.997306C12.0005 0.802309 11.9548 0.602316 11.8407 0.440833C11.7267 0.27935 11.5534 0.16944 11.3588 0.135011C9.32199 -0.207632 7.22902 0.105887 5.38204 1.0303C3.53507 1.95471 2.02966 3.44218 1.08318 5.27795C0.136702 7.11371 -0.201877 9.20277 0.116332 11.2435C0.43454 13.2842 1.39307 15.171 2.85352 16.6315C4.31398 18.092 6.20078 19.0505 8.24152 19.3687C10.2823 19.6869 12.3713 19.3483 14.2071 18.4018C16.0428 17.4554 17.5303 15.95 18.4547 14.103Z" fill="white"/>
<path d="M5.42514 7.24998C5.30152 7.43499 5.23554 7.6525 5.23554 7.875C5.23554 8.17337 5.35407 8.45952 5.56504 8.6705C5.77602 8.88147 6.06217 9 6.36054 9C6.58304 9 6.80055 8.93402 6.98556 8.8104C7.17056 8.68679 7.31476 8.51109 7.3999 8.30552C7.48505 8.09995 7.50733 7.87375 7.46392 7.65552C7.42051 7.4373 7.31337 7.23684 7.15603 7.07951C6.9987 6.92217 6.79825 6.81503 6.58002 6.77162C6.36179 6.72821 6.13559 6.75049 5.93002 6.83564C5.72445 6.92078 5.54875 7.06498 5.42514 7.24998Z" fill="white"/>
<path d="M14.0459 8.50002C14.1696 8.31501 14.2355 8.0975 14.2355 7.875C14.2355 7.57663 14.117 7.29048 13.906 7.07951C13.6951 6.86853 13.4089 6.75 13.1105 6.75C12.888 6.75 12.6705 6.81598 12.4855 6.9396C12.3005 7.06321 12.1563 7.23891 12.0712 7.44448C11.986 7.65005 11.9637 7.87625 12.0072 8.09448C12.0506 8.31271 12.1577 8.51316 12.315 8.6705C12.4724 8.82783 12.6728 8.93498 12.8911 8.97838C13.1093 9.02179 13.3355 8.99951 13.5411 8.91436C13.7466 8.82922 13.9223 8.68502 14.0459 8.50002Z" fill="white"/>
<path d="M9.73554 15C11.5665 15 13.1705 14.0428 14.1352 12.375C14.2347 12.2027 14.2616 11.9979 14.2101 11.8058C14.1586 11.6136 14.0328 11.4498 13.8605 11.3503C13.6882 11.2509 13.4835 11.2239 13.2913 11.2754C13.0991 11.327 12.9353 11.4527 12.8359 11.625C12.1365 12.8344 11.0359 13.5 9.73554 13.5C8.43523 13.5 7.3346 12.8353 6.63429 11.625C6.5874 11.5354 6.52287 11.4562 6.44458 11.3921C6.36628 11.3281 6.27584 11.2805 6.17869 11.2523C6.08155 11.2242 5.9797 11.2159 5.87929 11.2281C5.77888 11.2403 5.68197 11.2727 5.59439 11.3233C5.50682 11.3739 5.43039 11.4418 5.3697 11.5227C5.30902 11.6036 5.26533 11.696 5.24126 11.7942C5.2172 11.8925 5.21325 11.9946 5.22967 12.0944C5.24609 12.1942 5.28252 12.2896 5.33679 12.375C6.30148 14.0438 7.9046 15 9.73554 15Z" fill="white"/>
</svg>
