<svg width="20" height="20" viewBox="0 0 20 20" fill="none" xmlns="http://www.w3.org/2000/svg">
<g id="Target">
<path id="Vector" d="M17.3334 6.4967C18.2006 8.31061 18.3653 10.3815 17.7955 12.3096C17.2257 14.2378 15.9619 15.8866 14.248 16.9377C12.5341 17.9889 10.4915 18.3679 8.51459 18.0016C6.53765 17.6354 4.76645 16.5498 3.54283 14.9544C2.31921 13.359 1.72992 11.367 1.88869 9.36266C2.04746 7.35835 2.94304 5.4839 4.40257 4.10107C5.8621 2.71825 7.78213 1.92507 9.79208 1.87463C11.802 1.82419 13.7594 2.52007 15.2865 3.82795L17.0576 2.05607C17.1749 1.9388 17.3339 1.87291 17.4998 1.87291C17.6656 1.87291 17.8247 1.9388 17.942 2.05607C18.0592 2.17335 18.1251 2.33241 18.1251 2.49826C18.1251 2.66411 18.0592 2.82317 17.942 2.94045L13.0935 7.78967L10.1474 10.7358L8.27633 12.6069C8.76006 12.9268 9.32329 13.1058 9.90298 13.1239C10.4827 13.1419 11.0559 12.9983 11.5587 12.7091C12.0614 12.4199 12.4737 11.9965 12.7494 11.4863C13.0252 10.976 13.1535 10.3991 13.1201 9.82014C13.1108 9.65437 13.1677 9.4917 13.2783 9.3679C13.3889 9.24409 13.5442 9.1693 13.7099 9.15998C13.8757 9.15066 14.0384 9.20756 14.1622 9.31818C14.286 9.4288 14.3608 9.58406 14.3701 9.74982C14.4205 10.6348 14.2009 11.5143 13.7403 12.2717C13.2798 13.0291 12.6 13.6287 11.7911 13.9912C10.9821 14.3536 10.0822 14.4618 9.21036 14.3014C8.33856 14.1409 7.53606 13.7195 6.90914 13.0928C6.12944 12.3102 5.67467 11.2615 5.63616 10.1575C5.59766 9.05342 5.97826 7.97566 6.70154 7.14062C7.42482 6.30557 8.43724 5.77507 9.5355 5.65563C10.6338 5.53619 11.7365 5.83666 12.6224 6.4967L14.3982 4.71779C13.0957 3.63638 11.4396 3.07432 9.74793 3.13957C8.05628 3.20481 6.44837 3.89276 5.23304 5.07128C4.0177 6.2498 3.28063 7.83579 3.16339 9.52464C3.04615 11.2135 3.55702 12.8861 4.59786 14.2212C5.6387 15.5564 7.13613 16.4599 8.80254 16.7583C10.469 17.0566 12.1868 16.7288 13.6263 15.8377C15.0657 14.9466 16.1252 13.5552 16.6012 11.9306C17.0772 10.3059 16.9362 8.56274 16.2052 7.03576C16.1337 6.88616 16.1246 6.71429 16.1799 6.55796C16.2351 6.40163 16.3502 6.27365 16.4998 6.20217C16.6494 6.13068 16.8212 6.12155 16.9776 6.17679C17.1339 6.23202 17.2619 6.3471 17.3334 6.4967Z" fill="#F8F7F8"/>
</g>
</svg>
