<svg width="60" height="60" viewBox="0 0 60 60" fill="none" xmlns="http://www.w3.org/2000/svg">
<rect width="60" height="60" rx="16" fill="#40A1FB" fill-opacity="0.4"/>
<path d="M43 25.7518C43 34.5039 30.4896 41.5881 29.9568 41.8806C29.8164 41.959 29.6594 42 29.5 42C29.3406 42 29.1836 41.959 29.0432 41.8806C28.5104 41.5881 16 34.5039 16 25.7518C16.0022 23.6966 16.7903 21.7263 18.1913 20.273C19.5923 18.8198 21.4919 18.0023 23.4732 18C25.9623 18 28.1416 19.1103 29.5 20.987C30.8584 19.1103 33.0377 18 35.5268 18C37.5081 18.0023 39.4077 18.8198 40.8087 20.273C42.2097 21.7263 42.9978 23.6966 43 25.7518Z" fill="#40A1FB"/>
</svg>
