<svg width="18" height="18" viewBox="0 0 18 18" fill="none" xmlns="http://www.w3.org/2000/svg">
<g id="CheckCircle">
<g id="Vector">
<path d="M9 2.5C7.71442 2.5 6.45772 2.88122 5.3888 3.59545C4.31988 4.30968 3.48676 5.32484 2.99479 6.51256C2.50282 7.70028 2.37409 9.00721 2.6249 10.2681C2.8757 11.529 3.49477 12.6872 4.40381 13.5962C5.31285 14.5052 6.47104 15.1243 7.73192 15.3751C8.99279 15.6259 10.2997 15.4972 11.4874 15.0052C12.6752 14.5132 13.6903 13.6801 14.4046 12.6112C15.1188 11.5423 15.5 10.2856 15.5 9C15.4982 7.27665 14.8128 5.62441 13.5942 4.40582C12.3756 3.18722 10.7234 2.50182 9 2.5ZM11.8538 7.85375L8.35375 11.3538C8.30732 11.4002 8.25217 11.4371 8.19147 11.4623C8.13077 11.4874 8.06571 11.5004 8 11.5004C7.9343 11.5004 7.86923 11.4874 7.80853 11.4623C7.74783 11.4371 7.69269 11.4002 7.64625 11.3538L6.14625 9.85375C6.05243 9.75993 5.99972 9.63268 5.99972 9.5C5.99972 9.36732 6.05243 9.24007 6.14625 9.14625C6.24007 9.05243 6.36732 8.99972 6.5 8.99972C6.63268 8.99972 6.75993 9.05243 6.85375 9.14625L8 10.2931L11.1463 7.14625C11.1927 7.09979 11.2479 7.06294 11.3086 7.0378C11.3693 7.01266 11.4343 6.99972 11.5 6.99972C11.5657 6.99972 11.6308 7.01266 11.6915 7.0378C11.7521 7.06294 11.8073 7.09979 11.8538 7.14625C11.9002 7.1927 11.9371 7.24786 11.9622 7.30855C11.9873 7.36925 12.0003 7.4343 12.0003 7.5C12.0003 7.5657 11.9873 7.63075 11.9622 7.69145C11.9371 7.75214 11.9002 7.8073 11.8538 7.85375Z" fill="white"/>
<path d="M9.00106 1.5H9C7.51664 1.5 6.06659 1.93987 4.83323 2.76398C3.59986 3.58809 2.63856 4.75943 2.07091 6.12987C1.50325 7.50032 1.35472 9.00832 1.64411 10.4632C1.9335 11.918 2.64781 13.2544 3.6967 14.3033C4.7456 15.3522 6.08197 16.0665 7.53683 16.3559C8.99168 16.6453 10.4997 16.4968 11.8701 15.9291C13.2406 15.3614 14.4119 14.4001 15.236 13.1668C16.0601 11.9334 16.5 10.4834 16.5 9L16.5 8.99894C16.4979 7.01074 15.7072 5.10458 14.3013 3.69871C12.8954 2.29284 10.9893 1.5021 9.00106 1.5Z" stroke="#131314" stroke-opacity="0.8" stroke-width="2"/>
</g>
</g>
</svg>
