<svg width="20" height="20" viewBox="0 0 20 20" fill="none" xmlns="http://www.w3.org/2000/svg">
<g id="User">
<path id="Vector" d="M18.0417 17.1877C17.9869 17.2827 17.908 17.3616 17.8129 17.4165C17.7179 17.4713 17.6101 17.5002 17.5003 17.5002H2.50034C2.39068 17.5001 2.28298 17.4711 2.18806 17.4162C2.09314 17.3613 2.01433 17.2824 1.95955 17.1874C1.90477 17.0924 1.87595 16.9847 1.87598 16.875C1.876 16.7654 1.90488 16.6576 1.95971 16.5627C3.14955 14.5056 4.98315 13.0306 7.12299 12.3314C6.06453 11.7013 5.24217 10.7412 4.7822 9.59845C4.32223 8.45573 4.25009 7.19361 4.57685 6.00592C4.90361 4.81823 5.61121 3.77064 6.59098 3.02402C7.57075 2.2774 8.76851 1.87305 10.0003 1.87305C11.2322 1.87305 12.4299 2.2774 13.4097 3.02402C14.3895 3.77064 15.0971 4.81823 15.4238 6.00592C15.7506 7.19361 15.6784 8.45573 15.2185 9.59845C14.7585 10.7412 13.9361 11.7013 12.8777 12.3314C15.0175 13.0306 16.8511 14.5056 18.041 16.5627C18.0959 16.6576 18.1249 16.7654 18.1251 16.8751C18.1252 16.9848 18.0965 17.0926 18.0417 17.1877Z" fill="#F8F7F8"/>
</g>
</svg>
