<svg width="25" height="24" viewBox="0 0 25 24" fill="none" xmlns="http://www.w3.org/2000/svg">
<g id="icon">
<path id="Vector" d="M22.1499 20.6256C22.0841 20.7396 21.9894 20.8343 21.8753 20.9002C21.7613 20.966 21.6319 21.0006 21.5002 21.0006H3.50021C3.36862 21.0005 3.23938 20.9657 3.12548 20.8998C3.01157 20.8339 2.917 20.7393 2.85127 20.6253C2.78553 20.5113 2.75094 20.382 2.75098 20.2504C2.75101 20.1188 2.78566 19.9896 2.85146 19.8756C4.27927 17.4072 6.47958 15.6372 9.04739 14.7981C7.77724 14.042 6.79041 12.8898 6.23845 11.5185C5.68648 10.1473 5.59991 8.63272 5.99203 7.20749C6.38414 5.78226 7.23326 4.52515 8.40898 3.62921C9.5847 2.73327 11.022 2.24805 12.5002 2.24805C13.9784 2.24805 15.4157 2.73327 16.5914 3.62921C17.7672 4.52515 18.6163 5.78226 19.0084 7.20749C19.4005 8.63272 19.3139 10.1473 18.762 11.5185C18.21 12.8898 17.2232 14.042 15.953 14.7981C18.5208 15.6372 20.7211 17.4072 22.149 19.8756C22.2149 19.9895 22.2497 20.1188 22.2499 20.2505C22.2501 20.3821 22.2156 20.5115 22.1499 20.6256Z" fill="#AB0DD2"/>
</g>
</svg>
