<svg width="33" height="33" viewBox="0 0 33 33" fill="none" xmlns="http://www.w3.org/2000/svg">
<path d="M14.4363 7.07875C14.2015 6.8445 13.9114 6.67318 13.5929 6.5806C13.2743 6.48802 12.9376 6.47716 12.6138 6.54903C12.2899 6.62089 11.9894 6.77317 11.7399 6.99181C11.4905 7.21044 11.3001 7.48839 11.1863 7.8L4.62509 25.8475C4.51731 26.1451 4.48249 26.4642 4.52357 26.7781C4.56464 27.0919 4.68041 27.3914 4.86116 27.6512C5.0419 27.9111 5.28235 28.1238 5.56231 28.2715C5.84227 28.4191 6.15357 28.4975 6.47009 28.5C6.70314 28.4984 6.93411 28.4561 7.15259 28.375L25.1988 21.8125C25.5106 21.6989 25.7886 21.5086 26.0074 21.2592C26.2262 21.0098 26.3786 20.7093 26.4506 20.3855C26.5226 20.0616 26.5118 19.7248 26.4193 19.4062C26.3268 19.0876 26.1556 18.7975 25.9213 18.5625L14.4363 7.07875ZM13.3951 23.98L9.02009 19.605L10.6651 15.0787L17.9213 22.335L13.3951 23.98ZM6.52009 26.48L8.27009 21.6787L11.3263 24.735L6.52009 26.48ZM20.0001 21.58L11.4201 13L13.0451 8.51625L24.4738 19.945L20.0001 21.58ZM20.5001 9.5C20.5189 8.82396 20.6826 8.15983 20.9801 7.5525C21.6426 6.22875 22.8926 5.5 24.5001 5.5C25.3376 5.5 25.8751 5.21375 26.2063 4.59875C26.3808 4.25468 26.4808 3.87777 26.5001 3.4925C26.5011 3.22728 26.6074 2.97332 26.7956 2.78649C26.9839 2.59966 27.2386 2.49526 27.5038 2.49625C27.7691 2.49724 28.023 2.60356 28.2099 2.79179C28.3967 2.98003 28.5011 3.23478 28.5001 3.5C28.5001 5.1075 27.4351 7.5 24.5001 7.5C23.6626 7.5 23.1251 7.78625 22.7938 8.40125C22.6194 8.74532 22.5193 9.12223 22.5001 9.5075C22.4996 9.63882 22.4732 9.76876 22.4225 9.8899C22.3718 10.011 22.2978 10.121 22.2045 10.2135C22.1113 10.306 22.0008 10.3793 21.8793 10.4291C21.7578 10.4789 21.6277 10.5042 21.4963 10.5037C21.365 10.5033 21.2351 10.4769 21.1139 10.4262C20.9928 10.3755 20.8828 10.3014 20.7903 10.2082C20.6978 10.115 20.6246 10.0045 20.5748 9.88297C20.525 9.76145 20.4996 9.63132 20.5001 9.5ZM17.5001 5.5V2.5C17.5001 2.23478 17.6055 1.98043 17.793 1.79289C17.9805 1.60536 18.2349 1.5 18.5001 1.5C18.7653 1.5 19.0197 1.60536 19.2072 1.79289C19.3947 1.98043 19.5001 2.23478 19.5001 2.5V5.5C19.5001 5.76522 19.3947 6.01957 19.2072 6.20711C19.0197 6.39464 18.7653 6.5 18.5001 6.5C18.2349 6.5 17.9805 6.39464 17.793 6.20711C17.6055 6.01957 17.5001 5.76522 17.5001 5.5ZM30.2076 15.7925C30.3004 15.8854 30.374 15.9957 30.4242 16.1171C30.4745 16.2384 30.5003 16.3685 30.5002 16.4998C30.5002 16.6312 30.4742 16.7612 30.4239 16.8825C30.3736 17.0038 30.2999 17.114 30.207 17.2069C30.1141 17.2997 30.0038 17.3733 29.8824 17.4235C29.7611 17.4737 29.631 17.4995 29.4997 17.4995C29.3683 17.4994 29.2383 17.4735 29.117 17.4232C28.9956 17.3729 28.8854 17.2992 28.7926 17.2062L26.7926 15.2063C26.605 15.0186 26.4995 14.7641 26.4995 14.4987C26.4995 14.2334 26.605 13.9789 26.7926 13.7913C26.9802 13.6036 27.2347 13.4982 27.5001 13.4982C27.7655 13.4982 28.02 13.6036 28.2076 13.7913L30.2076 15.7925ZM30.8163 10.4487L27.8163 11.4487C27.5647 11.5326 27.2901 11.5131 27.0528 11.3945C26.8156 11.2759 26.6352 11.0679 26.5513 10.8162C26.4675 10.5646 26.487 10.29 26.6056 10.0528C26.7242 9.81552 26.9322 9.63513 27.1838 9.55125L30.1838 8.55125C30.4355 8.46738 30.7101 8.48689 30.9473 8.60551C31.1846 8.72413 31.365 8.93213 31.4488 9.18375C31.5327 9.43537 31.5132 9.71001 31.3946 9.94724C31.276 10.1845 31.068 10.3649 30.8163 10.4487Z" fill="#DA328D"/>
</svg>
