<svg width="15" height="14" viewBox="0 0 15 14" fill="none" xmlns="http://www.w3.org/2000/svg">
<path d="M7.5 1.3125C6.37512 1.3125 5.2755 1.64607 4.3402 2.27102C3.40489 2.89597 2.67591 3.78423 2.24544 4.82349C1.81496 5.86274 1.70233 7.00631 1.92179 8.10958C2.14124 9.21284 2.68292 10.2263 3.47833 11.0217C4.27374 11.8171 5.28716 12.3588 6.39043 12.5782C7.49369 12.7977 8.63726 12.685 9.67651 12.2546C10.7158 11.8241 11.604 11.0951 12.229 10.1598C12.8539 9.2245 13.1875 8.12488 13.1875 7C13.1859 5.49207 12.5862 4.04636 11.5199 2.98009C10.4536 1.91382 9.00793 1.31409 7.5 1.3125ZM7.5 11.8125C6.54818 11.8125 5.61773 11.5303 4.82632 11.0014C4.03491 10.4726 3.41808 9.72103 3.05383 8.84166C2.68959 7.9623 2.59428 6.99466 2.77997 6.06113C2.96566 5.12759 3.42401 4.27009 4.09705 3.59705C4.77009 2.92401 5.6276 2.46566 6.56113 2.27997C7.49466 2.09428 8.4623 2.18958 9.34167 2.55383C10.221 2.91808 10.9726 3.53491 11.5014 4.32632C12.0303 5.11773 12.3125 6.04818 12.3125 7C12.3111 8.27591 11.8036 9.49915 10.9014 10.4014C9.99915 11.3036 8.77591 11.8111 7.5 11.8125ZM7.0625 7.4375V4.375C7.0625 4.25897 7.1086 4.14769 7.19064 4.06564C7.27269 3.98359 7.38397 3.9375 7.5 3.9375C7.61603 3.9375 7.72731 3.98359 7.80936 4.06564C7.89141 4.14769 7.9375 4.25897 7.9375 4.375V7.4375C7.9375 7.55353 7.89141 7.66481 7.80936 7.74686C7.72731 7.82891 7.61603 7.875 7.5 7.875C7.38397 7.875 7.27269 7.82891 7.19064 7.74686C7.1086 7.66481 7.0625 7.55353 7.0625 7.4375ZM8.15625 9.40625C8.15625 9.53604 8.11776 9.66292 8.04565 9.77084C7.97354 9.87876 7.87105 9.96288 7.75114 10.0125C7.63122 10.0622 7.49927 10.0752 7.37197 10.0499C7.24467 10.0246 7.12774 9.96207 7.03596 9.87029C6.94419 9.77851 6.88168 9.66158 6.85636 9.53428C6.83104 9.40698 6.84404 9.27503 6.89371 9.15511C6.94338 9.0352 7.02749 8.93271 7.13541 8.8606C7.24333 8.78849 7.37021 8.75 7.5 8.75C7.67405 8.75 7.84097 8.81914 7.96404 8.94221C8.08711 9.06528 8.15625 9.2322 8.15625 9.40625Z" fill="#A72E2E"/>
<path d="M7.5 1.3125C6.37512 1.3125 5.2755 1.64607 4.3402 2.27102C3.40489 2.89597 2.67591 3.78423 2.24544 4.82349C1.81496 5.86274 1.70233 7.00631 1.92179 8.10958C2.14124 9.21284 2.68292 10.2263 3.47833 11.0217C4.27374 11.8171 5.28716 12.3588 6.39043 12.5782C7.49369 12.7977 8.63726 12.685 9.67651 12.2546C10.7158 11.8241 11.604 11.0951 12.229 10.1598C12.8539 9.2245 13.1875 8.12488 13.1875 7C13.1859 5.49207 12.5862 4.04636 11.5199 2.98009C10.4536 1.91382 9.00793 1.31409 7.5 1.3125ZM7.5 11.8125C6.54818 11.8125 5.61773 11.5303 4.82632 11.0014C4.03491 10.4726 3.41808 9.72103 3.05383 8.84166C2.68959 7.9623 2.59428 6.99466 2.77997 6.06113C2.96566 5.12759 3.42401 4.27009 4.09705 3.59705C4.77009 2.92401 5.6276 2.46566 6.56113 2.27997C7.49466 2.09428 8.4623 2.18958 9.34167 2.55383C10.221 2.91808 10.9726 3.53491 11.5014 4.32632C12.0303 5.11773 12.3125 6.04818 12.3125 7C12.3111 8.27591 11.8036 9.49915 10.9014 10.4014C9.99915 11.3036 8.77591 11.8111 7.5 11.8125ZM7.0625 7.4375V4.375C7.0625 4.25897 7.1086 4.14769 7.19064 4.06564C7.27269 3.98359 7.38397 3.9375 7.5 3.9375C7.61603 3.9375 7.72731 3.98359 7.80936 4.06564C7.89141 4.14769 7.9375 4.25897 7.9375 4.375V7.4375C7.9375 7.55353 7.89141 7.66481 7.80936 7.74686C7.72731 7.82891 7.61603 7.875 7.5 7.875C7.38397 7.875 7.27269 7.82891 7.19064 7.74686C7.1086 7.66481 7.0625 7.55353 7.0625 7.4375ZM8.15625 9.40625C8.15625 9.53604 8.11776 9.66292 8.04565 9.77084C7.97354 9.87876 7.87105 9.96288 7.75114 10.0125C7.63122 10.0622 7.49927 10.0752 7.37197 10.0499C7.24467 10.0246 7.12774 9.96207 7.03596 9.87029C6.94419 9.77851 6.88168 9.66158 6.85636 9.53428C6.83104 9.40698 6.84404 9.27503 6.89371 9.15511C6.94338 9.0352 7.02749 8.93271 7.13541 8.8606C7.24333 8.78849 7.37021 8.75 7.5 8.75C7.67405 8.75 7.84097 8.81914 7.96404 8.94221C8.08711 9.06528 8.15625 9.2322 8.15625 9.40625Z" stroke="#A72E2E"/>
</svg>
